<?xml version="1.0" encoding="UTF-8"?>
<svg version="1.1" xmlns="http://www.w3.org/2000/svg" width="1024" height="1024">
<path d="M0 0 C337.92 0 675.84 0 1024 0 C1024 337.92 1024 675.84 1024 1024 C686.08 1024 348.16 1024 0 1024 C0 686.08 0 348.16 0 0 Z " fill="#110E1F" transform="translate(0,0)"/>
<path d="M0 0 C1.00791595 -0.00700928 2.01583191 -0.01401855 3.05429077 -0.02124023 C6.35622451 -0.03871536 9.65728743 -0.02723351 12.95922852 -0.01367188 C15.27271182 -0.01637 17.58619402 -0.02025508 19.89967346 -0.02526855 C24.73709968 -0.03114963 29.57422947 -0.02264605 34.41162109 -0.00390625 C40.58945826 0.01886919 46.76659966 0.00575961 52.94441128 -0.01819611 C57.71874664 -0.03270246 62.49291913 -0.02802567 67.2672596 -0.01768494 C69.54406887 -0.01503036 71.82089328 -0.01824237 74.09768486 -0.02760315 C77.2894756 -0.03784699 80.48016551 -0.02215735 83.671875 0 C84.59844406 -0.00809692 85.52501312 -0.01619385 86.47966003 -0.02453613 C96.97340378 0.10933398 105.52472268 3.70306825 113.40063477 10.51757812 C114.12250977 11.11957031 114.84438477 11.7215625 115.58813477 12.34179688 C121.54738599 17.48753189 126.87674116 23.13888906 132.20581055 28.91796875 C138.40705814 35.61276279 144.87486072 42.02613471 151.40625 48.39794922 C152.18685791 49.16703613 152.96746582 49.93612305 153.77172852 50.72851562 C154.82251587 51.75404541 154.82251587 51.75404541 155.89453125 52.80029297 C157.40063477 54.51757812 157.40063477 54.51757812 157.40063477 56.51757812 C158.06063477 56.51757812 158.72063477 56.51757812 159.40063477 56.51757812 C160.84155273 57.97973633 160.84155273 57.97973633 162.51782227 60.00585938 C166.31173745 64.46680418 170.36119343 68.59180668 174.52563477 72.70507812 C175.2152832 73.39021484 175.90493164 74.07535156 176.61547852 74.78125 C179.3439834 77.49149529 182.07349939 80.19938375 184.83032227 82.88085938 C187.04506186 85.15281868 189.13813227 87.47552993 191.23657227 89.85351562 C197.8561944 97.25159436 204.97385476 104.16012742 212.02563477 111.14257812 C214.7708303 113.86092266 217.51250909 116.58274679 220.25219727 119.30664062 C220.86592194 119.91206696 221.47964661 120.51749329 222.11196899 121.14126587 C225.92175669 124.92976221 229.51620841 128.85259966 233.02304077 132.9234314 C234.96100182 135.37979449 234.96100182 135.37979449 238.17626953 135.72290039 C239.99082642 135.77788696 239.99082642 135.77788696 241.84204102 135.83398438 C243.1472168 135.87587891 244.45239258 135.91777344 245.79711914 135.9609375 C247.18578806 136.0007542 248.57445998 136.04046637 249.96313477 136.08007812 C251.3557266 136.12325801 252.74830504 136.16687213 254.14086914 136.2109375 C257.56068277 136.31743689 260.9805724 136.41944736 264.40063477 136.51757812 C259.04098791 130.21223417 253.33076439 124.3899139 247.39086914 118.63476562 C246.74569336 118.00054687 246.10051758 117.36632812 245.43579102 116.71289062 C244.85192627 116.14586426 244.26806152 115.57883789 243.66650391 114.99462891 C242.40063477 113.51757812 242.40063477 113.51757812 242.40063477 111.51757812 C241.74063477 111.51757812 241.08063477 111.51757812 240.40063477 111.51757812 C238.99707031 110.09277344 238.99707031 110.09277344 237.34985352 108.09570312 C233.21079732 103.23175161 228.75007203 98.75842559 224.21313477 94.26757812 C222.92113159 92.98125488 222.92113159 92.98125488 221.60302734 91.66894531 C218.87132356 88.94936924 216.13640201 86.23306612 213.40063477 83.51757812 C209.79351625 79.93719787 206.18981675 76.35342632 202.58813477 72.76757812 C201.77127197 71.95901367 200.95440918 71.15044922 200.11279297 70.31738281 C195.87686427 66.09944573 191.80452708 61.81310728 187.93199158 57.25785828 C184.96675416 53.88807288 181.63523294 50.85868277 178.32446289 47.83203125 C175.84905521 45.45676649 174.47474627 44.12795713 174.05297852 40.65429688 C174.16770508 39.94917969 174.28243164 39.2440625 174.40063477 38.51757812 C177.23629825 37.09974638 179.64442475 37.36672336 182.81542969 37.34057617 C183.47437729 37.33400497 184.13332489 37.32743378 184.8122406 37.32066345 C187.0018628 37.30089819 189.19141573 37.28925026 191.38110352 37.27929688 C192.13282648 37.27522135 192.88454945 37.27114582 193.6590519 37.26694679 C197.65095368 37.24605547 201.64282095 37.23177664 205.63476562 37.22241211 C209.72065804 37.21144341 213.80599129 37.17716574 217.89168835 37.13724041 C221.06200521 37.11081102 224.23219541 37.10269646 227.40261269 37.09913063 C228.90581274 37.09431869 230.40900928 37.082863 231.91209984 37.06409264 C251.21928124 36.83830954 268.03355906 41.77155382 282.33032227 55.47070312 C283.01352539 56.14617187 283.69672852 56.82164062 284.40063477 57.51757812 C285.26688477 58.30132812 286.13313477 59.08507812 287.02563477 59.89257812 C304.57547011 79.28976456 307.01249386 100.27335532 306.90234375 125.33642578 C306.90613353 127.80865282 306.91163898 130.28087772 306.91871643 132.75309753 C306.931164 138.73414237 306.92516737 144.71490018 306.91004085 150.69591691 C306.89306178 157.67882694 306.8964058 164.66168565 306.90013493 171.64460997 C306.90599513 184.11272541 306.89191344 196.58073942 306.8671875 209.04882812 C306.84326183 221.1149475 306.83618964 233.18093147 306.84667969 245.24707031 C306.85811741 258.42664355 306.85998461 271.60615438 306.84558159 284.7857269 C306.84405595 286.19390638 306.84253559 287.60208586 306.84102058 289.01026535 C306.84026277 289.70289548 306.83950496 290.3955256 306.83872418 291.10914452 C306.83400417 295.96338354 306.8358164 300.81759447 306.84008598 305.67183304 C306.84555859 312.2170162 306.83466062 318.76204067 306.81313133 325.30719948 C306.80759449 327.70081137 306.80706942 330.09444124 306.8120842 332.48805428 C306.84003322 347.7485862 306.35524922 361.82221136 300.27563477 376.08007812 C299.97778076 376.78841797 299.67992676 377.49675781 299.37304688 378.2265625 C289.93117465 399.72780777 271.76990104 416.16396182 250.08813477 424.83007812 C234.62697965 429.74485858 219.32079315 429.94771325 203.26269531 429.88989258 C200.87574607 429.89232556 198.48879786 429.89604977 196.10185242 429.9009552 C189.66831895 429.91029584 183.23493943 429.90099787 176.80141807 429.88762307 C170.73240407 429.87609615 164.66338981 429.8799277 158.59436832 429.88182559 C146.57265209 429.8850034 134.55099544 429.87341525 122.52929688 429.85375977 C110.89288522 429.83473955 99.25654328 429.82767928 87.62011719 429.83325195 C74.90751447 429.8393221 62.19494226 429.8391117 49.48234206 429.82776612 C48.12476687 429.82655898 46.76719167 429.82535299 45.40961647 429.82414818 C44.40800712 429.82324287 44.40800712 429.82324287 43.38616323 429.82231927 C38.70330123 429.81845631 34.0204545 429.81888778 29.33759117 429.82073402 C23.02798832 429.82262364 16.71847428 429.8144613 10.40889168 429.79867363 C8.09990176 429.79444774 5.7909028 429.79356875 3.48191071 429.79636383 C-10.64381479 429.81086411 -24.09611323 429.82240191 -37.41186523 424.51757812 C-38.17176758 424.21706543 -38.93166992 423.91655273 -39.71459961 423.60693359 C-62.63558233 414.0915715 -79.027244 396.14103897 -88.59936523 373.51757812 C-90.21713219 369.23073571 -91.57873793 364.98408573 -92.59936523 360.51757812 C-92.84873888 359.47125985 -92.84873888 359.47125985 -93.10315037 358.40380383 C-95.37860102 347.19171679 -94.90350975 335.77123096 -94.90576172 324.3840332 C-94.91339174 321.93696848 -94.92182068 319.48990614 -94.9309845 317.04284668 C-94.95285186 310.42072351 -94.96174067 303.79863598 -94.96681094 297.1764853 C-94.97008233 293.03209288 -94.97661328 288.8877096 -94.98381233 284.74332237 C-95.00335933 273.24015131 -95.01977533 261.73698868 -95.02268887 250.23379993 C-95.02297022 249.13254131 -95.02297022 249.13254131 -95.02325726 248.00903503 C-95.02362348 246.5210919 -95.02398718 245.03314876 -95.02434837 243.54520563 C-95.02453118 242.80672088 -95.02471399 242.06823613 -95.02490234 241.30737305 C-95.02508289 240.56797403 -95.02526344 239.82857502 -95.02544946 239.06676998 C-95.02898912 227.09322989 -95.05600694 215.11986984 -95.09340023 203.14639214 C-95.13159515 190.81635528 -95.15084714 178.48640753 -95.15114838 166.15631026 C-95.15173034 159.24824409 -95.16005296 152.34039294 -95.18914604 145.43238258 C-95.21640479 138.93071445 -95.21747029 132.42935855 -95.2014904 125.92765045 C-95.19968472 123.55302438 -95.20628608 121.17837329 -95.22230911 118.80380058 C-95.36493263 96.27902151 -91.57927139 77.18788871 -76.59936523 59.51757812 C-76.09018555 58.85242188 -75.58100586 58.18726563 -75.05639648 57.50195312 C-66.25852724 46.46660108 -51.27301692 37.62522623 -37.59936523 34.51757812 C-37.51686523 33.21820313 -37.43436523 31.91882813 -37.34936523 30.58007812 C-36.77203037 25.34282618 -34.98149183 21.17230825 -32.59936523 16.51757812 C-32.20749023 15.65132813 -31.81561523 14.78507812 -31.41186523 13.89257812 C-23.67937554 3.76035025 -12.32091023 -0.1074329 0 0 Z " fill="#F8F8F1" transform="translate(414.599365234375,283.482421875)"/>
<path d="M0 0 C19.27451115 -0.16043524 19.27451115 -0.16043524 27.54492188 -0.1953125 C33.16934466 -0.21914447 38.79350484 -0.24721575 44.41772461 -0.30175781 C48.95650278 -0.34549381 53.49499901 -0.36919522 58.03397179 -0.37950897 C59.7581901 -0.38685087 61.4823945 -0.40118683 63.20649147 -0.42292023 C76.8122935 -0.58747539 87.35070078 0.78586024 98 10 C98.721875 10.60199219 99.44375 11.20398438 100.1875 11.82421875 C106.14675122 16.96995377 111.4761064 22.62131094 116.80517578 28.40039062 C123.00642338 35.09518467 129.47422596 41.50855659 136.00561523 47.88037109 C136.78622314 48.64945801 137.56683105 49.41854492 138.37109375 50.2109375 C139.4218811 51.23646729 139.4218811 51.23646729 140.49389648 52.28271484 C142 54 142 54 142 56 C142.66 56 143.32 56 144 56 C145.44091797 57.4621582 145.44091797 57.4621582 147.1171875 59.48828125 C150.91110269 63.94922606 154.96055867 68.07422855 159.125 72.1875 C159.81464844 72.87263672 160.50429688 73.55777344 161.21484375 74.26367188 C163.94334863 76.97391716 166.67286462 79.68180562 169.4296875 82.36328125 C171.64442709 84.63524056 173.73749751 86.9579518 175.8359375 89.3359375 C182.45555964 96.73401624 189.57322 103.6425493 196.625 110.625 C199.37019554 113.34334453 202.11187432 116.06516866 204.8515625 118.7890625 C205.46528717 119.39448883 206.07901184 119.99991516 206.71133423 120.62368774 C210.52112192 124.41218409 214.11557365 128.33502154 217.62240601 132.40585327 C218.38934195 133.29334874 219.17059089 134.17059089 220 135 C222.21855264 135.08783542 224.43988496 135.10694609 226.66015625 135.09765625 C227.32462265 135.0962413 227.98908905 135.09482635 228.6736908 135.09336853 C230.80333899 135.08775518 232.93288339 135.07520054 235.0625 135.0625 C236.50325369 135.05748671 237.94400903 135.05292351 239.38476562 135.04882812 C242.92321102 135.03778145 246.46159539 135.02050792 250 135 C250.21017538 142.46513867 250.21017538 142.46513867 248.53125 145.83203125 C248.2110791 146.48107422 247.8909082 147.13011719 247.56103516 147.79882812 C247.21089355 148.46333984 246.86075195 149.12785156 246.5 149.8125 C246.14341309 150.50666016 245.78682617 151.20082031 245.41943359 151.91601562 C242.31872206 157.76702977 238.76358406 163.34823716 234 168 C233.34 168 232.68 168 232 168 C232 168.66 232 169.32 232 170 C231.34 170 230.68 170 230 170 C230 170.66 230 171.32 230 172 C226.53846154 175 226.53846154 175 224 175 C224 175.66 224 176.32 224 177 C223.34 177 222.68 177 222 177 C222 177.66 222 178.32 222 179 C221.34 179 220.68 179 220 179 C221.2623465 181.52469299 222.19870477 181.65658776 224.75 182.75 C229.88592309 185.22591991 232.43114857 188.3105404 235.3125 193.25 C236.82245243 199.28980972 237.07325617 204.87317668 233.875 210.375 C230.76442915 214.74924026 227.09293037 217.30235654 222 219 C220.55415152 219.09464203 219.1043732 219.13485253 217.65544128 219.14044189 C216.76808792 219.14615204 215.88073456 219.15186218 214.9664917 219.15774536 C213.51004242 219.15942215 213.51004242 219.15942215 212.02416992 219.16113281 C210.99949112 219.16609772 209.97481232 219.17106262 208.91908264 219.17617798 C205.52287122 219.19080547 202.12670652 219.19760264 198.73046875 219.203125 C196.37258401 219.208876 194.01469928 219.21463374 191.65681458 219.22039795 C186.70960268 219.23090963 181.76240704 219.2367512 176.81518555 219.24023438 C170.47649737 219.24571916 164.138024 219.26974637 157.79940319 219.29820633 C152.92750928 219.31683161 148.05566712 219.32203826 143.18374062 219.32357025 C140.84696592 219.32659759 138.51019216 219.33462881 136.17345238 219.34775543 C132.90347333 219.36481307 129.63401918 219.36293611 126.36401367 219.35644531 C125.39912018 219.3656601 124.43422668 219.37487488 123.44009399 219.3843689 C117.3340404 219.34640835 112.84347568 218.61867098 108.171875 214.31640625 C107.70265625 213.73761719 107.2334375 213.15882813 106.75 212.5625 C106.27046875 211.98628906 105.7909375 211.41007813 105.296875 210.81640625 C102.73292293 207.22532881 101.75327005 204.40734371 101.4375 200 C101.20465992 196.88279408 100.84402343 194.0133729 100 191 C99.40316406 190.90460938 98.80632812 190.80921875 98.19140625 190.7109375 C95.52482515 189.84584345 94.66150686 188.80414467 92.9375 186.625 C91.45258254 184.77377664 90.03742214 183.03559879 88.31640625 181.3984375 C87 180 87 180 87 178 C86.34 178 85.68 178 85 178 C85 177.34 85 176.68 85 176 C84.4225 175.7525 83.845 175.505 83.25 175.25 C80.70649745 173.83694303 79.04701082 172.04701082 77 170 C76.34 170 75.68 170 75 170 C74.98582031 170.58265625 74.97164062 171.1653125 74.95703125 171.765625 C73.97516531 188.64310442 63.56994691 203.8070904 51.48828125 215.05078125 C39.74812265 225.3477208 23.62007555 232.02574266 7.99804688 232.17700195 C6.83664185 232.18983719 5.67523682 232.20267242 4.4786377 232.21589661 C3.23787476 232.22328354 1.99711182 232.23067047 0.71875 232.23828125 C-0.56809692 232.246353 -1.85494385 232.25442474 -3.18078613 232.26274109 C-5.89737816 232.27770531 -8.61394463 232.2875753 -11.33056641 232.29516602 C-14.80071521 232.30625535 -18.27022725 232.34071006 -21.74015045 232.38033772 C-25.06632431 232.41282937 -28.39242975 232.41728193 -31.71875 232.42578125 C-32.95951294 232.44328934 -34.20027588 232.46079742 -35.4786377 232.47883606 C-40.34728034 232.466572 -44.07088205 232.39619303 -48.58007812 230.47338867 C-55.03372829 223.87714877 -55.58419994 217.08976013 -55.51757812 208.17138672 C-55.5245874 207.0094278 -55.53159668 205.84746887 -55.53881836 204.65029907 C-55.5563601 200.82651564 -55.54478978 197.00347787 -55.53125 193.1796875 C-55.53394563 190.51505621 -55.53782286 187.85044723 -55.54284668 185.18582153 C-55.55010618 179.60931373 -55.54057819 174.03301845 -55.52148438 168.45654297 C-55.49969724 162.01932464 -55.50678672 155.58261277 -55.52879 149.1454066 C-55.54696721 143.60460142 -55.54949172 138.06394828 -55.53903532 132.52312291 C-55.53281574 129.21977308 -55.53350503 125.91671217 -55.54518127 122.61336899 C-55.55534084 118.93183886 -55.53985294 115.25128187 -55.51757812 111.56982422 C-55.52567505 110.48187561 -55.53377197 109.393927 -55.54211426 108.27301025 C-55.45555636 100.54995878 -54.17349043 97.11020237 -48.61279297 91.66040039 C-42.93718577 89.05195299 -37.36872435 89.4099839 -31.1953125 89.43359375 C-29.82973816 89.42834734 -28.46416743 89.42206716 -27.09860229 89.41481018 C-24.23548356 89.40441808 -21.37286193 89.40893959 -18.50976562 89.42358398 C-15.60401968 89.437248 -12.69959207 89.43058943 -9.79394531 89.40307617 C15.06373687 89.16812635 33.34362741 91.47735065 53 108 C53.12554464 103.14779638 53.21523191 98.29657978 53.2746582 93.44311523 C53.29948301 91.79939263 53.3333554 90.15577651 53.37719727 88.51245117 C53.67804759 76.92794403 52.43483207 67.76982237 48 57 C47.67813721 56.05890381 47.35627441 55.11780762 47.0246582 54.14819336 C46.51745239 53.08483765 46.51745239 53.08483765 46 52 C44.515 51.505 44.515 51.505 43 51 C42.195625 50.030625 41.39125 49.06125 40.5625 48.0625 C38.32386073 45.38705307 37.1749837 44.17591989 34 43 C34 42.34 34 41.68 34 41 C32.3369416 40.32438252 30.66905395 39.66066719 29 39 C27.845 38.505 26.69 38.01 25.5 37.5 C20.42929847 35.60254999 15.36371359 35.21655179 10 34.8125 C6.7 34.544375 3.4 34.27625 0 34 C0 22.78 0 11.56 0 0 Z " fill="#D1D1CF" transform="translate(430,284)"/>
<path d="M0 0 C1.36557434 -0.00524641 2.73114507 -0.01152659 4.09671021 -0.01878357 C6.95982894 -0.02917567 9.82245057 -0.02465416 12.68554688 -0.01000977 C15.59129282 0.00365425 18.49572043 -0.00300432 21.40136719 -0.03051758 C47.73367238 -0.27947599 67.92639432 2.60668812 87.5390625 21.78125 C101.33717311 36.2489748 107.64763232 54.93634059 107.3984375 74.7265625 C106.56779161 90.42896464 100.82855964 105.78102398 90.1953125 117.56640625 C89.42832031 118.43652344 88.66132813 119.30664062 87.87109375 120.203125 C76.20992306 132.68142882 59.61315639 141.83998588 42.27429199 142.71357727 C40.74923035 142.72834358 40.74923035 142.72834358 39.19335938 142.7434082 C38.03195435 142.75624344 36.87054932 142.76907867 35.6739502 142.78230286 C34.43318726 142.78968979 33.19242432 142.79707672 31.9140625 142.8046875 C30.62721558 142.81275925 29.34036865 142.82083099 28.01452637 142.82914734 C25.29793434 142.84411156 22.58136787 142.85398155 19.86474609 142.86157227 C16.39459729 142.8726616 12.92508525 142.90711631 9.45516205 142.94674397 C6.12898819 142.97923562 2.80288275 142.98368818 -0.5234375 142.9921875 C-1.76420044 143.00969559 -3.00496338 143.02720367 -4.2833252 143.04524231 C-9.15196784 143.03297825 -12.87556955 142.96259928 -17.38476562 141.03979492 C-23.83841579 134.44355502 -24.38888744 127.65616638 -24.32226562 118.73779297 C-24.3292749 117.57583405 -24.33628418 116.41387512 -24.34350586 115.21670532 C-24.3610476 111.39292189 -24.34947728 107.56988412 -24.3359375 103.74609375 C-24.33863313 101.08146246 -24.34251036 98.41685348 -24.34753418 95.75222778 C-24.35479368 90.17571998 -24.34526569 84.5994247 -24.32617188 79.02294922 C-24.30438474 72.58573089 -24.31147422 66.14901902 -24.3334775 59.71181285 C-24.35165471 54.17100767 -24.35417922 48.63035453 -24.34372282 43.08952916 C-24.33750324 39.78617933 -24.33819253 36.48311842 -24.34986877 33.17977524 C-24.36002834 29.49824511 -24.34454044 25.81768812 -24.32226562 22.13623047 C-24.33036255 21.04828186 -24.33845947 19.96033325 -24.34680176 18.8394165 C-24.26024386 11.11636503 -22.97817793 7.67660862 -17.41748047 2.22680664 C-11.74187327 -0.38164076 -6.17341185 -0.02360985 0 0 Z " fill="#11101F" transform="translate(398.8046875,373.43359375)"/>
<path d="M0 0 C0.98484375 -0.02835938 1.9696875 -0.05671875 2.984375 -0.0859375 C11.0328908 1.05009703 16.3325912 5.88930595 21.8125 11.546875 C22.48925781 12.2292926 23.16601562 12.91171021 23.86328125 13.61480713 C26.00184572 15.77558643 28.12600004 17.94991223 30.25 20.125 C31.70609772 21.60118183 33.16312039 23.0764519 34.62109375 24.55078125 C38.17484366 28.1484008 41.7157465 31.7582298 45.25 35.375 C48.34181156 33.89699351 50.47136464 32.40056628 52.89453125 29.9609375 C53.91063477 28.94193359 53.91063477 28.94193359 54.94726562 27.90234375 C55.64529297 27.19207031 56.34332031 26.48179687 57.0625 25.75 C57.74892578 25.06292969 58.43535156 24.37585938 59.14257812 23.66796875 C62.54239739 20.23920116 65.82270143 16.75742763 68.96875 13.09375 C71.4343603 10.2391282 73.90832416 7.77324147 76.9375 5.5 C78.02611328 4.66855469 78.02611328 4.66855469 79.13671875 3.8203125 C85.0591438 -0.23014456 90.17152009 -0.23308418 97.25 0.375 C103.35629322 2.48444675 107.77437067 6.98777454 111.25 12.375 C113.29587355 19.17073381 112.87473271 25.17181108 109.61328125 31.453125 C107.75832649 34.06813285 105.5542439 36.14571735 103.25 38.375 C102.19599902 39.42516218 101.14400536 40.47734186 100.09375 41.53125 C92.8125 48.8125 85.53125 56.09375 78.25 63.375 C79.896745 67.68968151 83.18329159 70.50679215 86.4296875 73.64453125 C87.68111236 74.87552624 88.93241044 76.10665012 90.18359375 77.33789062 C92.1515776 79.26249551 94.12196804 81.18455107 96.09521484 83.10375977 C98.00496649 84.96491784 99.90516219 86.8354452 101.8046875 88.70703125 C102.68300735 89.55271416 102.68300735 89.55271416 103.57907104 90.41548157 C107.80754717 94.5929404 111.61021562 98.98968421 112.74609375 105 C112.56296852 112.42267616 110.9209211 118.3233426 105.8203125 124.01953125 C100.97175627 128.2047278 94.93061904 130.16372826 88.56460571 129.73054504 C80.91746215 128.55587241 75.70322603 123.37194708 70.5390625 118.01953125 C69.84485199 117.31728928 69.15064148 116.6150473 68.43539429 115.89152527 C66.23885656 113.66618876 64.05649791 111.42757294 61.875 109.1875 C59.66946496 106.9394492 57.46109245 104.69425526 55.25033569 102.45133972 C53.88002294 101.05932863 52.5132238 99.66384822 51.15029907 98.26460266 C50.22826187 97.32308601 50.22826187 97.32308601 49.28759766 96.36254883 C48.74769196 95.8083577 48.20778625 95.25416656 47.65151978 94.68318176 C46.26335818 93.26360347 46.26335818 93.26360347 44.25 92.375 C43.755 93.86 43.755 93.86 43.25 95.375 C41.796875 96.8046875 41.796875 96.8046875 40 98.25 C35.22101699 102.11970748 31.06822306 106.53296193 26.95019531 111.08251953 C10.60250863 129.10296821 10.60250863 129.10296821 -0.75 129.8125 C-7.07857221 129.51468484 -11.91390683 126.60971606 -16.125 122 C-20.31668151 116.63510328 -21.56838748 111.14649644 -20.75 104.375 C-17.34089143 93.1449953 -6.4286543 84.9277188 1.6875 76.875 C2.8120833 75.75544368 3.93643405 74.63565371 5.06054688 73.515625 C7.78769344 70.79938466 10.51795907 68.08631708 13.25 65.375 C11.85822659 62.23452157 10.23224575 60.11053964 7.80078125 57.6953125 C6.77500977 56.67244141 6.77500977 56.67244141 5.72851562 55.62890625 C5.01373047 54.92636719 4.29894531 54.22382812 3.5625 53.5 C2.86705078 52.80519531 2.17160156 52.11039063 1.45507812 51.39453125 C-1.77924169 48.18739059 -5.04022895 45.07941276 -8.53125 42.15234375 C-11.19845934 39.90627273 -13.43733385 37.59462618 -15.5625 34.8125 C-16.12582031 34.08933594 -16.68914062 33.36617187 -17.26953125 32.62109375 C-20.74058432 27.35498421 -21.56679595 22.55783515 -20.75 16.375 C-18.63036027 9.39415058 -13.98807795 4.97482933 -7.890625 1.234375 C-5.17159533 0.14279375 -2.92718454 0.0379169 0 0 Z " fill="#12101F" transform="translate(465.75,531.625)"/>
<path d="M0 0 C11.88 0 23.76 0 36 0 C36 0.66 36 1.32 36 2 C34.35 2 32.7 2 31 2 C32.34126445 7.96117531 34.23130963 13.38553113 36.625 19 C36.94984375 19.77472656 37.2746875 20.54945313 37.609375 21.34765625 C38.40114142 23.23392332 39.19984273 25.11727701 40 27 C42.29844873 23.55232691 43.67469403 19.97629097 45.125 16.125 C45.40214844 15.41730469 45.67929687 14.70960938 45.96484375 13.98046875 C47.39674434 10.19263321 48.37153179 7.11915678 48 3 C46.02 2.67 44.04 2.34 42 2 C42 1.34 42 0.68 42 0 C48.27 0 54.54 0 61 0 C61 0.66 61 1.32 61 2 C60.071875 2.2475 59.14375 2.495 58.1875 2.75 C53.51796177 4.58119146 52.47581541 6.92412132 50.46948242 11.46069336 C49.92548149 12.83471786 49.38783816 14.21127088 48.85546875 15.58984375 C48.56319901 16.33021378 48.27092926 17.0705838 47.96980286 17.83338928 C47.03656512 20.19919298 46.11138773 22.56803095 45.1875 24.9375 C44.27354662 27.27450868 43.3576684 29.61070279 42.43733215 31.94520569 C41.86678455 33.39309203 41.29975273 34.84237213 40.73735046 36.29344177 C38.09126808 43.02077739 35.04891681 49.39401359 32 56 C50.81 56.495 50.81 56.495 70 57 C70 60.96 70 64.92 70 69 C54.82 69 39.64 69 24 69 C23.34 70.32 22.68 71.64 22 73 C16.78090416 76.757749 13.39726642 77.72227202 7 77 C3.9929314 75.66352507 2.45008264 74.79491618 0.82363909 71.92236304 C-0.94028028 69.67058949 -0.94028028 69.67058949 -4.2451846 69.49679399 C-5.61852196 69.47473596 -6.99231875 69.47498917 -8.36572552 69.49219131 C-9.12557846 69.48588756 -9.8854314 69.47958381 -10.6683102 69.47308904 C-13.23536771 69.45672009 -15.80150537 69.4690312 -18.36857605 69.48101807 C-20.21908198 69.47514739 -22.06958304 69.46752276 -23.92007524 69.458287 C-29.02128707 69.43793824 -34.12222223 69.44260365 -39.22345626 69.45119452 C-44.7183747 69.45612153 -50.21322203 69.43807674 -55.70811462 69.42277527 C-65.23374725 69.39941547 -74.75930364 69.39071683 -84.28496361 69.39188385 C-98.05757088 69.39355013 -111.83007626 69.37324855 -125.6026564 69.34752855 C-147.94595457 69.30640205 -170.2892394 69.28308887 -192.63256836 69.27099609 C-214.34124505 69.25920449 -236.04988752 69.23904008 -257.75854492 69.20751953 C-258.76195863 69.2060676 -258.76195863 69.2060676 -259.78564332 69.20458635 C-266.50332785 69.19485668 -273.22101213 69.18495658 -279.93869624 69.17493158 C-336.29244749 69.09084923 -392.64619857 69.03553829 -449 69 C-449 65.04 -449 61.08 -449 57 C-390.41629315 56.84950448 -331.83257471 56.70447137 -273.2488364 56.5667524 C-266.32962781 56.55048528 -259.41041934 56.53416718 -252.49121094 56.51782227 C-251.45842317 56.51538386 -251.45842317 56.51538386 -250.404771 56.5128962 C-228.10876395 56.46023165 -205.8127669 56.40420356 -183.51677257 56.34642143 C-159.94407052 56.28534894 -136.37136256 56.22812983 -112.7986412 56.17494446 C-98.68460674 56.14297627 -84.57058671 56.10794963 -70.45656979 56.06898809 C-60.77291285 56.04255112 -51.08925163 56.01994722 -41.40557849 56.00032883 C-35.82195059 55.98890452 -30.23833993 55.97581773 -24.65472794 55.95816994 C-19.53438975 55.94202384 -14.41406378 55.93073328 -9.29370594 55.92316891 C-7.44955293 55.91961163 -5.60540218 55.91433167 -3.76126003 55.90707164 C7.20647804 55.86503744 18.06101432 56.16140844 29 57 C25.38590295 46.84527154 21.31841351 36.97534033 16.9375 27.125 C16.17808105 25.41509888 16.17808105 25.41509888 15.40332031 23.6706543 C13.95496633 20.43777179 12.48516481 17.21612198 11 14 C10.54874756 13.01435059 10.09749512 12.02870117 9.63256836 11.01318359 C9.20468018 10.11164551 8.77679199 9.21010742 8.3359375 8.28125 C7.777854 7.09499023 7.777854 7.09499023 7.20849609 5.88476562 C6.00309326 3.64668372 6.00309326 3.64668372 2.6875 2.375 C1.800625 2.25125 0.91375 2.1275 0 2 C0 1.34 0 0.68 0 0 Z " fill="#EAEAEA" transform="translate(718,793)"/>
<path d="M0 0 C7.1675305 -0.05112915 14.33501316 -0.08591196 21.50268555 -0.10986328 C23.93597165 -0.11985889 26.36924594 -0.13345985 28.80249023 -0.15087891 C32.3201796 -0.17541253 35.83770879 -0.18654785 39.35546875 -0.1953125 C40.42580856 -0.20563507 41.49614838 -0.21595764 42.59892273 -0.22659302 C58.59758384 -0.22891664 74.09597796 2.0916732 85.90625 13.671875 C95.20573366 24.01234563 95.84204966 35.41911194 95.19970703 48.77392578 C94.76478045 53.62192163 93.27141557 57.73453643 91 62 C90.49146484 62.99193359 90.49146484 62.99193359 89.97265625 64.00390625 C84.86783069 72.41506012 75.23304622 75.5639396 66.2734375 78.23828125 C58.2414488 80.1073001 50.39619904 80.13412433 42.1875 80.09765625 C40.97803711 80.0962413 39.76857422 80.09482635 38.52246094 80.09336853 C34.68161485 80.08779709 30.8408283 80.07524984 27 80.0625 C24.3867196 80.05748131 21.77343827 80.05291905 19.16015625 80.04882812 C12.77341739 80.03783702 6.38671295 80.02112743 0 80 C0 79.34 0 78.68 0 78 C5.94 77.01 5.94 77.01 12 76 C12 52.24 12 28.48 12 4 C6.06 3.01 6.06 3.01 0 2 C0 1.34 0 0.68 0 0 Z " fill="#EAEAEA" transform="translate(266,765)"/>
<path d="M0 0 C0.99264359 -0.00671722 1.98528717 -0.01343445 3.00801086 -0.02035522 C6.28094524 -0.03931255 9.55367433 -0.04325819 12.82666016 -0.04541016 C15.10820601 -0.05183925 17.38975104 -0.0585677 19.67129517 -0.06558228 C24.45096752 -0.07754909 29.23056763 -0.08126366 34.01025391 -0.08007812 C40.1256766 -0.07987488 46.24063486 -0.10718555 52.35594749 -0.14162254 C57.06751624 -0.16389161 61.77897316 -0.16791567 66.49058914 -0.16685867 C68.74477363 -0.16921428 70.99896121 -0.17803549 73.25309372 -0.19352341 C76.40994291 -0.21318442 79.56578989 -0.20734449 82.72265625 -0.1953125 C83.64759384 -0.20655151 84.57253143 -0.21779053 85.52549744 -0.22937012 C92.09353152 -0.1659638 97.58185029 1.13609646 102.51653099 5.70244789 C107.21331661 11.01327201 108.52492807 15.77707196 108.36962891 22.72412109 C107.51307723 28.52571338 104.37969086 32.20713214 99.86572266 35.72802734 C96.28411191 37.67455492 93.66093743 38.41548194 89.64616394 38.43096924 C88.75881058 38.43667938 87.87145721 38.44238953 86.95721436 38.44827271 C85.50076508 38.44994949 85.50076508 38.44994949 84.01489258 38.45166016 C82.47787437 38.45910751 82.47787437 38.45910751 80.9098053 38.46670532 C77.51359388 38.48133281 74.11742917 38.48812998 70.72119141 38.49365234 C68.36330667 38.49940335 66.00542194 38.50516109 63.64753723 38.51092529 C58.70032534 38.52143698 53.7531297 38.52727854 48.8059082 38.53076172 C42.46722003 38.53624651 36.12874665 38.56027371 29.79012585 38.58873367 C24.91823194 38.60735895 20.04638978 38.6125656 15.17446327 38.6140976 C12.83768858 38.61712493 10.50091482 38.62515615 8.16417503 38.63828278 C4.89419599 38.65534041 1.62474184 38.65346346 -1.64526367 38.64697266 C-2.61015717 38.65618744 -3.57505066 38.66540222 -4.56918335 38.67489624 C-10.67523695 38.63693569 -15.16580167 37.90919832 -19.83740234 33.60693359 C-20.30662109 33.02814453 -20.77583984 32.44935547 -21.25927734 31.85302734 C-21.97857422 30.98871094 -21.97857422 30.98871094 -22.71240234 30.10693359 C-26.19085174 25.23500899 -26.7843897 21.18138126 -26.00927734 15.29052734 C-24.15490295 9.39024517 -21.07100259 5.73250051 -16.00927734 2.29052734 C-10.67165176 -0.02473629 -5.71263456 -0.00557357 0 0 Z " fill="#110F1F" transform="translate(558.00927734375,464.70947265625)"/>
<path d="M0 0 C12.27720564 0.25577512 21.80819039 11.59084659 29.82226562 19.88623047 C33.3691911 23.62928656 36.86844257 27.41483796 40.33764648 31.22998047 C42.05260266 33.16128537 42.05260266 33.16128537 44.66015625 34.97119141 C48.26603779 39.63882145 47.65125158 44.10568594 47.56640625 49.84375 C47.57204086 51.00442993 47.57767548 52.16510986 47.58348083 53.36096191 C47.59993905 57.07438389 47.58440856 60.78661951 47.5625 64.5 C47.545826 68.18471148 47.53695335 71.86861956 47.55223083 75.55334473 C47.5613983 77.84297984 47.55273096 80.13278603 47.52259827 82.42224121 C47.57028776 96.5952099 52.37989646 109.62301089 61.98828125 120.0859375 C68.12508147 125.9248348 75.1434 129.94465555 83 133 C83 133.33 83 133.66 83 134 C75.6520046 134.88293805 68.39775556 135.18280599 61 135.1875 C59.98421875 135.19974609 58.9684375 135.21199219 57.921875 135.22460938 C47.3438408 135.24495175 38.93203581 133.79423481 30 128 C29.13375 127.443125 28.2675 126.88625 27.375 126.3125 C18.01471549 117.19853877 14.34901075 107.17374343 13.86196899 94.37185669 C13.85547333 93.14071136 13.84897766 91.90956604 13.84228516 90.64111328 C13.83466408 89.61006973 13.83466408 89.61006973 13.82688904 88.55819702 C13.81627487 87.08071239 13.80762044 85.60321259 13.80076981 84.12570572 C13.78884911 81.7782922 13.76936582 79.43105202 13.74765015 77.08370972 C13.68646475 70.41475268 13.63206744 63.74581908 13.59863281 57.07666016 C13.57756586 52.98239109 13.54217657 48.88844939 13.49787521 44.79436874 C13.48382021 43.24524688 13.4750168 41.69606724 13.47182083 40.14688492 C13.45238472 31.63011421 12.97845551 24.08085622 10 16 C9.65021301 14.67088828 9.31164784 13.33856808 9 12 C8.34 12 7.68 12 7 12 C6.896875 11.360625 6.79375 10.72125 6.6875 10.0625 C6.460625 9.381875 6.23375 8.70125 6 8 C5.01 7.67 4.02 7.34 3 7 C1.60287726 5.04402816 0.26220093 3.04563599 -1 1 C-0.67 0.67 -0.34 0.34 0 0 Z " fill="#F7F8F0" transform="translate(511,286)"/>
<path d="M0 0 C1.12098389 0.95681834 2.24139831 1.91430389 3.36157227 2.87207031 C3.98556412 3.40519836 4.60955597 3.93832642 5.25245667 4.48760986 C7.21076273 6.18240204 9.09579686 7.92917785 10.9375 9.75 C11.52402344 10.32234375 12.11054687 10.8946875 12.71484375 11.484375 C14 13 14 13 14 15 C14.66 15 15.32 15 16 15 C17.44091797 16.4621582 17.44091797 16.4621582 19.1171875 18.48828125 C22.91110269 22.94922606 26.96055867 27.07422855 31.125 31.1875 C32.15947266 32.21520508 32.15947266 32.21520508 33.21484375 33.26367188 C35.94334863 35.97391716 38.67286462 38.68180562 41.4296875 41.36328125 C43.64442709 43.63524056 45.73749751 45.9579518 47.8359375 48.3359375 C54.45555964 55.73401624 61.57322 62.6425493 68.625 69.625 C71.37019554 72.34334453 74.11187432 75.06516866 76.8515625 77.7890625 C77.77214951 78.697202 77.77214951 78.697202 78.71133423 79.62368774 C81.86978164 82.76448389 84.95052311 85.96689977 87.94677734 89.26318359 C88.53196136 89.90581146 89.11714539 90.54843933 89.72006226 91.21054077 C91 93 91 93 91 96 C83.65299609 95.95812058 76.30673686 95.88558997 68.96020508 95.79248047 C66.46483085 95.76438268 63.96936948 95.74311293 61.47387695 95.72900391 C57.87145731 95.70741961 54.27007328 95.66068788 50.66796875 95.609375 C49.01416451 95.60753204 49.01416451 95.60753204 47.32695007 95.60565186 C33.15933127 95.34216589 22.48568651 89.68398284 12.640625 79.578125 C2.7655181 67.92104392 -0.33326733 55.56665244 -0.1953125 40.625 C-0.1924826 39.4599292 -0.18965271 38.2948584 -0.18673706 37.09448242 C-0.17559807 33.39621438 -0.15050479 29.69819408 -0.125 26 C-0.1149621 23.48307643 -0.10583766 20.96614904 -0.09765625 18.44921875 C-0.0756793 12.29939553 -0.04226444 6.14971547 0 0 Z " fill="#A2A1A7" transform="translate(558,325)"/>
<path d="M0 0 C31.53785901 0 31.53785901 0 43 10 C49.41796697 16.77452069 52.42884154 24.85450772 52.265625 34.08984375 C51.27591806 44.93295652 47.242928 52.90817109 39 60 C26.73838784 68.67933816 15.67878492 67 0 67 C0 44.89 0 22.78 0 0 Z " fill="#F6F6F0" transform="translate(414,412)"/>
<path d="M0 0 C16.5 0 33 0 50 0 C50 0.66 50 1.32 50 2 C47.69 2.33 45.38 2.66 43 3 C42.15051386 5.37250987 41.79955812 6.52879429 42.80444336 8.89111328 C43.22862549 9.52774902 43.65280762 10.16438477 44.08984375 10.8203125 C44.54423828 11.52027344 44.99863281 12.22023438 45.46679688 12.94140625 C45.95212891 13.66199219 46.43746094 14.38257813 46.9375 15.125 C47.88786414 16.56263249 48.83466572 18.00262844 49.77734375 19.4453125 C50.20265381 20.07969238 50.62796387 20.71407227 51.06616211 21.36767578 C52 23 52 23 52 25 C52.66 25 53.32 25 54 25 C54.33451172 24.20916016 54.33451172 24.20916016 54.67578125 23.40234375 C56.81011087 19.53032984 59.77301412 16.2258129 62.63085938 12.86523438 C65.44724838 9.40604463 65.44724838 9.40604463 65.80078125 5.08984375 C65.53652344 4.40019531 65.27226563 3.71054687 65 3 C62.69 2.67 60.38 2.34 58 2 C58 1.34 58 0.68 58 0 C67.24 0 76.48 0 86 0 C86 0.66 86 1.32 86 2 C85.24976563 2.08894531 84.49953125 2.17789063 83.7265625 2.26953125 C74.02762177 3.96745664 69.92068322 8.44841071 64 16 C62.79537109 17.35351562 62.79537109 17.35351562 61.56640625 18.734375 C60.82261719 19.58515625 60.07882812 20.4359375 59.3125 21.3125 C58.64863281 22.07175781 57.98476563 22.83101562 57.30078125 23.61328125 C55.80529614 25.93631079 55.80529614 25.93631079 55.8984375 28.65625 C57.55667743 33.68977263 60.3979209 37.78878654 63.3125 42.1875 C64.5907115 44.14656952 65.86803857 46.10621635 67.14453125 48.06640625 C68.11253662 49.54584717 68.11253662 49.54584717 69.10009766 51.05517578 C70.90629004 53.85475076 72.6571502 56.67993962 74.38671875 59.52734375 C74.91289795 60.38755127 75.43907715 61.24775879 75.98120117 62.1340332 C76.96848285 63.75326402 77.94703004 65.37786428 78.9152832 67.00854492 C82.29743084 72.50037894 85.40385544 76.06187533 91.875 77.75 C92.57625 77.8325 93.2775 77.915 94 78 C94 78.66 94 79.32 94 80 C77.17 80 60.34 80 43 80 C43 79.34 43 78.68 43 78 C46.96 77.01 46.96 77.01 51 76 C50.6587393 69.69184759 47.39752484 65.26891753 44.0625 60.125 C43.51142578 59.24585938 42.96035156 58.36671875 42.39257812 57.4609375 C40.30716427 54.15146042 40.30716427 54.15146042 38 51 C37.34 51 36.68 51 36 51 C34.14752002 53.15078594 32.40677131 55.30895314 30.6875 57.5625 C30.21376953 58.17158203 29.74003906 58.78066406 29.25195312 59.40820312 C27.81893782 61.26073317 26.40738588 63.12794566 25 65 C24.51265381 65.63478271 24.02530762 66.26956543 23.52319336 66.92358398 C20.65380974 70.51750954 20.65380974 70.51750954 20.1875 74.9375 C20.455625 75.618125 20.72375 76.29875 21 77 C23.64 77.33 26.28 77.66 29 78 C29 78.66 29 79.32 29 80 C19.1 80 9.2 80 -1 80 C-1 79.34 -1 78.68 -1 78 C-0.19175781 77.84144531 0.61648438 77.68289063 1.44921875 77.51953125 C3.05216797 77.16955078 3.05216797 77.16955078 4.6875 76.8125 C5.74324219 76.59207031 6.79898438 76.37164063 7.88671875 76.14453125 C11.69574388 74.74422465 13.3260695 73.03721332 16 70 C16.69307251 69.22136597 16.69307251 69.22136597 17.40014648 68.42700195 C18.91046278 66.71661713 20.39553165 64.98711791 21.875 63.25 C22.39803711 62.63817871 22.92107422 62.02635742 23.45996094 61.39599609 C27.44970923 56.7042791 31.28312357 51.91101876 35 47 C30.78610418 39.04598904 26.23151375 31.36656748 21.4375 23.75 C20.79103516 22.71359375 20.14457031 21.6771875 19.47851562 20.609375 C17.67141088 17.72683152 15.84310558 14.85962704 14 12 C13.5352124 11.26644287 13.0704248 10.53288574 12.59155273 9.77709961 C10.19165006 6.16394651 8.44358073 4.14240108 4.1875 3.0625 C3.39730469 2.84722656 2.60710938 2.63195312 1.79296875 2.41015625 C0.90544922 2.20712891 0.90544922 2.20712891 0 2 C0 1.34 0 0.68 0 0 Z " fill="#E9E9E9" transform="translate(526,765)"/>
<path d="M0 0 C5.85844736 3.69336899 9.8210102 9.47271499 12 16 C13.07478134 24.83570244 11.85328593 32.79906226 6.4921875 40.03515625 C0.60519538 46.48346622 -6.95616652 49.43368073 -15.54296875 50.23828125 C-24.43272996 50.48777233 -31.29956299 48.43019168 -38.3125 42.875 C-43.95553437 37.49523093 -47.218965 31.34589618 -47.5625 23.5 C-47.10872424 15.04544104 -44.2089992 8.19960272 -37.9375 2.46875 C-26.6342266 -6.09986048 -12.51066181 -6.22303143 0 0 Z " fill="#E9E9E9" transform="translate(427,796)"/>
<path d="M0 0 C3.36252449 2.71968893 4.86531194 5.23227808 5.625 9.5625 C4.84686049 13.84226729 3.29670019 15.26615106 0 18 C-0.495 18.495 -0.495 18.495 -1 19 C-6.33490525 19.35566035 -9.63826389 19.43651936 -14 16 C-15.58832177 12.82335647 -15.41182039 9.45929132 -15 6 C-13.5 3.625 -13.5 3.625 -12 2 C-12 1.34 -12 0.68 -12 0 C-14.37374861 -0.33425735 -14.37374861 -0.33425735 -17 0 C-20.29237487 3.40995969 -21.09940794 6.83025473 -21.31640625 11.44921875 C-21.35830078 12.29677734 -21.40019531 13.14433594 -21.44335938 14.01757812 C-21.48267578 14.89865234 -21.52199219 15.77972656 -21.5625 16.6875 C-21.60568359 17.58017578 -21.64886719 18.47285156 -21.69335938 19.39257812 C-21.7993522 21.59487344 -21.90017221 23.79741662 -22 26 C-18.04 26 -14.08 26 -10 26 C-10.495 27.485 -10.495 27.485 -11 29 C-14.63 29 -18.26 29 -22 29 C-21.88208541 35.39051565 -21.75786235 41.78086492 -21.62768555 48.17114258 C-21.58426493 50.34688953 -21.54259529 52.52267214 -21.50268555 54.69848633 C-21.44515498 57.81863168 -21.38141177 60.93859633 -21.31640625 64.05859375 C-21.29969376 65.03775253 -21.28298126 66.01691132 -21.26576233 67.02574158 C-21.24581711 67.92659988 -21.22587189 68.82745819 -21.20532227 69.75561523 C-21.18200584 70.95141457 -21.18200584 70.95141457 -21.15821838 72.17137146 C-21.19599335 74.01851382 -21.19599335 74.01851382 -20 75 C-17.67182036 75.36760731 -15.3381615 75.70241581 -13 76 C-13 76.66 -13 77.32 -13 78 C-25.21 78 -37.42 78 -50 78 C-50 77.34 -50 76.68 -50 76 C-47.03 75.01 -47.03 75.01 -44 74 C-43.67 59.15 -43.34 44.3 -43 29 C-45.31 29 -47.62 29 -50 29 C-50 28.01 -50 27.02 -50 26 C-47.69 26 -45.38 26 -43 26 C-43.06960938 25.154375 -43.13921875 24.30875 -43.2109375 23.4375 C-43.53240981 16.70188967 -43.58820713 11.88381984 -38.9765625 6.71484375 C-28.18597941 -2.64694671 -13.18741812 -7.06468828 0 0 Z " fill="#E9E9E9" transform="translate(723,767)"/>
<path d="M0 0 C1.51864939 -0.01152952 3.03725796 -0.03199706 4.55566406 -0.06152344 C6.76459929 -0.10440841 8.97233973 -0.1203938 11.18164062 -0.13061523 C12.49567871 -0.14519775 13.8097168 -0.15978027 15.16357422 -0.17480469 C20.27033568 0.46612084 23.81657623 2.37705974 27.65039062 5.89282227 C32.0913202 11.63540362 32.49954107 16.23136542 31.90820312 23.29516602 C30.27763802 28.53013819 28.11999685 31.78533791 23.90820312 35.29516602 C19.55822622 37.56217417 15.33908233 37.61712747 10.53710938 37.63110352 C9.73716049 37.63776031 8.93721161 37.64441711 8.11302185 37.65127563 C6.42620127 37.66137112 4.739341 37.66609362 3.05249023 37.66577148 C0.48223698 37.67014638 -2.08629996 37.70650094 -4.65625 37.74438477 C-6.30012437 37.75025342 -7.94400685 37.75422249 -9.58789062 37.75610352 C-10.7319059 37.77766006 -10.7319059 37.77766006 -11.89903259 37.7996521 C-17.08016887 37.75562845 -19.95714661 36.66763138 -24.09179688 33.29516602 C-29.02248233 27.83143349 -29.44706928 23.53797494 -29.36914062 16.37719727 C-28.97463907 11.99322929 -27.8067461 8.76194733 -25.09179688 5.29516602 C-17.6567111 -0.87437325 -9.18852875 0.04855888 0 0 Z " fill="#121120" transform="translate(634.091796875,622.704833984375)"/>
<path d="M0 0 C0.81931503 -0.00145523 1.63863007 -0.00291046 2.48277283 -0.00440979 C4.20477883 -0.00275868 5.9268008 0.00871376 7.64868164 0.02954102 C10.27359064 0.05855227 12.89648303 0.05012266 15.52148438 0.03710938 C17.20183266 0.04334635 18.88217461 0.05173697 20.5625 0.0625 C21.34077652 0.05956436 22.11905304 0.05662872 22.9209137 0.05360413 C28.40399854 0.14787617 32.62750634 1.19145829 36.859375 4.9609375 C41.48468025 10.79284412 42.00395211 16.19684145 41.21484375 23.49609375 C39.54116569 28.82639453 36.97071404 32.44745895 32.21484375 35.49609375 C28.40527629 36.76594957 24.79250999 36.69755426 20.8203125 36.734375 C19.99533768 36.74244675 19.17036285 36.75051849 18.32038879 36.75883484 C16.57453503 36.77265948 14.82865443 36.78338888 13.08276367 36.79125977 C10.42248908 36.80846347 7.76346067 36.85236148 5.10351562 36.89648438 C3.40495703 36.90661279 1.7063879 36.91512843 0.0078125 36.921875 C-0.78301224 36.93938309 -1.57383698 36.95689117 -2.3886261 36.97492981 C-8.46635108 36.95124268 -12.09180159 35.19571203 -16.46484375 30.8125 C-20.61188931 24.72745603 -20.75554849 18.67333444 -19.78515625 11.49609375 C-18.30857313 6.49308272 -15.35112946 3.80103657 -10.80130005 1.31661987 C-7.24787046 -0.12954771 -3.79123432 -0.05486701 0 0 Z " fill="#10101F" transform="translate(624.78515625,552.50390625)"/>
<path d="M0 0 C8.783896 0 12.3861594 0.79682311 18.75 6.4375 C28.01399513 18.7060341 27.34869549 39.35911118 25.50390625 53.9140625 C23.84180152 61.93348306 21.43251319 68.32263971 14.875 73.4375 C9.1900182 76.52716402 7.39959987 76 0 76 C0 50.92 0 25.84 0 0 Z " fill="#171424" transform="translate(306,767)"/>
<path d="M0 0 C3.54351261 2.51290392 6.06277615 4.47899453 7.67578125 8.60546875 C8.3315362 12.50949823 8.26614515 15.60441693 6.23828125 19.04296875 C2.49878327 21.32315044 -0.96155247 21.93815041 -5.32421875 21.60546875 C-9.17098228 19.64711641 -10.9338805 18.19097613 -13.32421875 14.60546875 C-13.77272014 8.99920131 -12.69326857 3.99610241 -11.32421875 -1.39453125 C-14.24750628 -1.68686 -16.47741068 -1.90717485 -19.32421875 -1.39453125 C-26.07115885 5.70751096 -25.85296361 16.17162563 -25.640625 25.38671875 C-25.27517825 32.20023639 -23.46252281 37.97840948 -19.13671875 43.29296875 C-14.01313384 45.68397504 -9.344908 45.30493811 -4.07421875 43.48046875 C0.21412984 40.55659471 2.79778643 36.92246099 5.67578125 32.60546875 C6.33578125 32.60546875 6.99578125 32.60546875 7.67578125 32.60546875 C5.98851878 38.17343489 2.55250434 42.73081358 -2.3203125 45.90625 C-10.79466782 50.3116332 -20.21035757 50.89232035 -29.44921875 48.54296875 C-36.20353912 46.25209257 -42.1295749 42.09785864 -45.82421875 35.91796875 C-49.20021559 28.4626424 -50.08014931 19.46505516 -47.265625 11.67578125 C-42.87909987 3.85373916 -36.51043608 -1.42335106 -27.87109375 -3.92578125 C-18.35568838 -5.67708285 -8.40468082 -5.04280849 0 0 Z " fill="#E8E8E9" transform="translate(505.32421875,796.39453125)"/>
<path d="M0 0 C4.265212 4.1585817 5.7124301 8.45979919 6.375 14.3125 C5.7947663 20.01813139 4.27093745 24.85023906 0.0234375 28.87109375 C-7.20256669 34.34971874 -12.90624528 34.87746756 -22 34 C-27.75636242 31.96421329 -31.0962689 28.34286523 -34 23 C-35.86795333 17.39614002 -35.73535867 11.29258879 -33.9375 5.6875 C-25.13594126 -6.52111374 -12.31681196 -7.94914814 0 0 Z " fill="#141221" transform="translate(410,556)"/>
<path d="M0 0 C3.96078878 4.30028496 5.86548888 9.12092216 6.6875 14.875 C5.72511125 21.61172124 3.64379523 26.63008374 -1.8125 30.875 C-7.862953 35.12922476 -14.61382605 35.16971882 -21.8125 34.375 C-27.26200882 32.46633406 -31.15989513 28.75480664 -33.96875 23.75390625 C-36.03322709 17.93322778 -35.57973541 11.8121007 -33.75 6 C-24.83650387 -6.0763496 -12.6708527 -7.32093712 0 0 Z " fill="#131221" transform="translate(409.8125,626.625)"/>
<path d="M0 0 C9.57 0 19.14 0 29 0 C29.33 16.17 29.66 32.34 30 49 C32.31 49.33 34.62 49.66 37 50 C37 50.66 37 51.32 37 52 C25.12 52 13.24 52 1 52 C1 51.34 1 50.68 1 50 C2.98 49.34 4.96 48.68 7 48 C7 33.48 7 18.96 7 4 C4.69 3.34 2.38 2.68 0 2 C0 1.34 0 0.68 0 0 Z " fill="#EAEAEA" transform="translate(624,793)"/>
<path d="M0 0 C6.4035312 6.4035312 5.21770488 14.11332595 5.24023438 22.58911133 C5.24992234 24.79481984 5.28096133 26.99958868 5.3125 29.20507812 C5.31903292 30.62239035 5.32428226 32.03970918 5.328125 33.45703125 C5.34214355 35.3747937 5.34214355 35.3747937 5.35644531 37.33129883 C4.8723785 42.31353994 3.62865881 46.37134119 0 50 C-2.69076341 50.34496967 -4.32835093 50.39801426 -6.6875 49 C-11.33340964 41.92051865 -10.29861726 32.51201619 -10.25 24.4375 C-10.25773437 23.14908203 -10.26546875 21.86066406 -10.2734375 20.53320312 C-10.2441018 6.3127217 -10.2441018 6.3127217 -6.6875 1.0625 C-4.22094378 -0.49051688 -2.85706441 -0.55747598 0 0 Z " fill="#151223" transform="translate(412,794)"/>
<path d="M0 0 C3.76422743 2.53509194 4.75784002 4.15244006 6 8.5 C6 13.31804413 4.50968717 15.37848415 1.3125 18.8125 C-2.12429814 20.57734229 -5.27928476 20.74271475 -9 20 C-12.26250137 18.10181738 -14.38735287 16.70715156 -15.6953125 13.0625 C-16.32800358 9.50866077 -16.20586882 7.47349829 -14.75 4.125 C-10.63364511 -0.87343094 -6.05199807 -0.92662171 0 0 Z " fill="#E7E7E7" transform="translate(647,765)"/>
<path d="M0 0 C9.48899642 0.19768743 16.24558757 6.96414208 23 13 C22.01 13.495 22.01 13.495 21 14 C21 14.99 21 15.98 21 17 C20.34 16.67 19.68 16.34 19 16 C19.33 15.34 19.66 14.68 20 14 C15.95377498 13.63019987 15.95377498 13.63019987 13 16 C10.8125 15.625 10.8125 15.625 9 15 C9 14.01 9 13.02 9 12 C8.34 12 7.68 12 7 12 C6.896875 11.360625 6.79375 10.72125 6.6875 10.0625 C6.460625 9.381875 6.23375 8.70125 6 8 C5.01 7.67 4.02 7.34 3 7 C1.60287726 5.04402816 0.26220093 3.04563599 -1 1 C-0.67 0.67 -0.34 0.34 0 0 Z " fill="#EFF0EB" transform="translate(511,286)"/>
<path d="M0 0 C0.66 0.66 1.32 1.32 2 2 C2.99 2.33 3.98 2.66 5 3 C3.68 3.33 2.36 3.66 1 4 C1 5.32 1 6.64 1 8 C-0.32 7.67 -1.64 7.34 -3 7 C-3.04125 7.556875 -3.0825 8.11375 -3.125 8.6875 C-4.46930374 12.24030274 -7.00974189 13.70958953 -10 16 C-9.67 17.32 -9.34 18.64 -9 20 C-8.34 20 -7.68 20 -7 20 C-6.67 20.99 -6.34 21.98 -6 23 C-4.02 23.33 -2.04 23.66 0 24 C-1.13031152 27.39093457 -1.53808707 27.53808707 -4 30 C-7.96 26.04 -11.92 22.08 -16 18 C-14.19613762 14.39227523 -12.7942051 12.52365948 -10 9.75 C-9.29875 9.04359375 -8.5975 8.3371875 -7.875 7.609375 C-6 6 -6 6 -4 6 C-3.566875 5.071875 -3.566875 5.071875 -3.125 4.125 C-2 2 -2 2 0 0 Z " fill="#E8E8EA" transform="translate(559,579)"/>
<path d="M0 0 C5.06623768 4.23816537 9.80038069 8.67408963 14.4375 13.375 C15.07365234 14.01566406 15.70980469 14.65632813 16.36523438 15.31640625 C17.91250332 16.87530879 19.45736492 18.43651416 21 20 C20.34 21.32 19.68 22.64 19 24 C18.01 23.01 17.02 22.02 16 21 C16.33 20.34 16.66 19.68 17 19 C16.34 19 15.68 19 15 19 C14.67 19.66 14.34 20.32 14 21 C13.7525 20.05125 13.505 19.1025 13.25 18.125 C12.3142923 14.91306809 12.3142923 14.91306809 9.875 13.625 C9.25625 13.41875 8.6375 13.2125 8 13 C8.33 12.34 8.66 11.68 9 11 C8.01 11.495 8.01 11.495 7 12 C7 12.66 7 13.32 7 14 C6.01 14.33 5.02 14.66 4 15 C2.56911472 12.13822943 3.40008303 10.06624227 4 7 C2.35 7.33 0.7 7.66 -1 8 C-4 3.25 -4 3.25 -4 1 C-3.34 1 -2.68 1 -2 1 C-1.67 1.33 -1.34 1.66 -1 2 C-0.67 1.34 -0.34 0.68 0 0 Z " fill="#191722" transform="translate(621,360)"/>
<path d="M0 0 C6.27 0 12.54 0 19 0 C19 0.66 19 1.32 19 2 C17.6078125 2.37125 17.6078125 2.37125 16.1875 2.75 C12.10685411 4.35025329 10.8741821 6.02608676 9.10864258 10.01269531 C8.14153766 12.41312009 7.21951221 14.82625131 6.3125 17.25 C5.99216797 18.09046875 5.67183594 18.9309375 5.34179688 19.796875 C4.55545677 21.86248483 3.77508231 23.93014538 3 26 C2.01 26 1.02 26 0 26 C0.4375 24.6875 0.875 23.375 1.3125 22.0625 C1.58320312 21.24394531 1.85390625 20.42539062 2.1328125 19.58203125 C2.69524296 17.90740723 3.2725239 16.23766963 3.8671875 14.57421875 C5.26842541 10.60404468 6.41416331 7.27968754 6 3 C3.03 2.505 3.03 2.505 0 2 C0 1.34 0 0.68 0 0 Z " fill="#E2E2E2" transform="translate(760,793)"/>
<path d="M0 0 C0.09796875 0.72445312 0.1959375 1.44890625 0.296875 2.1953125 C1.47887898 9.83757958 3.1313695 14.71823255 9 20 C7.02 20.66 5.04 21.32 3 22 C2 17.25 2 17.25 2 15 C1.01 15.33 0.02 15.66 -1 16 C-1.29003906 15.18595703 -1.29003906 15.18595703 -1.5859375 14.35546875 C-1.84632813 13.64003906 -2.10671875 12.92460938 -2.375 12.1875 C-2.63023437 11.47980469 -2.88546875 10.77210938 -3.1484375 10.04296875 C-4.0265769 7.75226641 -4.0265769 7.75226641 -6 5 C-6.125 2.3125 -6.125 2.3125 -6 0 C-3 -1 -3 -1 0 0 Z " fill="#EFEFEC" transform="translate(375,568)"/>
<path d="M0 0 C0 0.66 0 1.32 0 2 C-1.42578125 3.26171875 -1.42578125 3.26171875 -3.3125 4.6875 C-7.07121113 7.76903443 -8.44830471 10.43619032 -10 15 C-14.875 10.375 -14.875 10.375 -16 7 C-15.0625 4.8125 -15.0625 4.8125 -14 3 C-12 4 -12 4 -10 5 C-9.773125 4.38125 -9.54625 3.7625 -9.3125 3.125 C-6.9604125 -0.68314167 -4.12119017 -1.37373006 0 0 Z " fill="#F0EFEB" transform="translate(456,533)"/>
<path d="M0 0 C0.66 0.33 1.32 0.66 2 1 C1.525625 1.763125 1.05125 2.52625 0.5625 3.3125 C-1.10106097 5.96410548 -1.10106097 5.96410548 -2 9 C-2.66 9 -3.32 9 -4 9 C-5.07525194 11.65228812 -6.09456151 14.28368454 -7 17 C-8.27875 16.896875 -9.5575 16.79375 -10.875 16.6875 C-11.59429687 16.62949219 -12.31359375 16.57148438 -13.0546875 16.51171875 C-15 16 -15 16 -17 13 C-16.27554687 12.56429688 -15.55109375 12.12859375 -14.8046875 11.6796875 C-9.19494208 8.22408432 -4.41805995 4.89568806 0 0 Z " fill="#EDF0ED" transform="translate(485,494)"/>
<path d="M0 0 C0 3 0 3 -1 5 C-0.67 5.99 -0.34 6.98 0 8 C-0.99 8.495 -0.99 8.495 -2 9 C-2.268125 9.78375 -2.53625 10.5675 -2.8125 11.375 C-4.29347502 14.64873425 -5.97148986 15.21395556 -9 17 C-9.87822312 19.08533633 -9.87822312 19.08533633 -10 21 C-10.12375 20.360625 -10.2475 19.72125 -10.375 19.0625 C-10.58125 18.381875 -10.7875 17.70125 -11 17 C-11.66 16.67 -12.32 16.34 -13 16 C-8.93866463 10.40636594 -4.6208599 5.14036486 0 0 Z " fill="#ECEEF6" transform="translate(345,335)"/>
<path d="M0 0 C1.02456299 -0.00021904 1.02456299 -0.00021904 2.06982422 -0.0004425 C4.33157507 0.00025517 6.59324397 0.00804074 8.85498047 0.01586914 C10.42153885 0.01773384 11.98809781 0.0191575 13.55465698 0.02015686 C17.68106695 0.02397796 21.80744181 0.03380479 25.93383789 0.04486084 C30.14322434 0.05508369 34.35261644 0.05965636 38.56201172 0.06469727 C46.82374659 0.07542741 55.08545292 0.09249897 63.34716797 0.11352539 C63.34716797 0.44352539 63.34716797 0.77352539 63.34716797 1.11352539 C62.07596603 1.12898659 62.07596603 1.12898659 60.77908325 1.14476013 C52.80348617 1.24262329 44.82796517 1.34512166 36.85249519 1.45286465 C32.75195147 1.50809556 28.65140062 1.56151583 24.55078125 1.61083984 C20.59555625 1.65848093 16.64041917 1.71082363 12.68529892 1.76646614 C11.17420508 1.78689086 9.66308713 1.80560376 8.15195084 1.82259941 C6.04001373 1.8466409 3.92824329 1.87669561 1.81640625 1.90820312 C0.61283478 1.92374741 -0.59073669 1.93929169 -1.83078003 1.95530701 C-4.60357836 1.92371316 -4.60357836 1.92371316 -6.65283203 3.11352539 C-7.31283203 2.45352539 -7.97283203 1.79352539 -8.65283203 1.11352539 C-5.75368292 -0.33604917 -3.23854903 -0.00580385 0 0 Z " fill="#909998" transform="translate(597.65283203125,320.886474609375)"/>
<path d="M0 0 C0.66 0.33 1.32 0.66 2 1 C2.04945386 5.35992871 2.08574488 9.71970862 2.10986328 14.07983398 C2.11991821 15.56293583 2.13356404 17.04601788 2.15087891 18.52905273 C2.17515006 20.66134531 2.18648799 22.79337569 2.1953125 24.92578125 C2.20578613 26.20880127 2.21625977 27.49182129 2.22705078 28.8137207 C2 32 2 32 0 35 C0 29.06 0 23.12 0 17 C-0.33 17 -0.66 17 -1 17 C-1.02684679 14.35409986 -1.04676357 11.70846904 -1.0625 9.0625 C-1.07087891 8.30775391 -1.07925781 7.55300781 -1.08789062 6.77539062 C-1.09652441 4.85005687 -1.05224333 2.92464419 -1 1 C-0.67 0.67 -0.34 0.34 0 0 Z " fill="#CCCCC8" transform="translate(523,352)"/>
<path d="M0 0 C-1.375 2 -1.375 2 -3 4 C-3.66 4 -4.32 4 -5 4 C-5 3.34 -5 2.68 -5 2 C-5.99 2.33 -6.98 2.66 -8 3 C-9.72795352 3.06802967 -11.45835365 3.08495645 -13.1875 3.0625 C-14.08855469 3.05347656 -14.98960937 3.04445313 -15.91796875 3.03515625 C-16.60503906 3.02355469 -17.29210937 3.01195312 -18 3 C-18 3.66 -18 4.32 -18 5 C-21.96 5 -25.92 5 -30 5 C-30 4.34 -30 3.68 -30 3 C-30.66 2.67 -31.32 2.34 -32 2 C-30.43590158 0.43590158 -28.83359821 0.78184671 -26.66015625 0.68359375 C-25.76103516 0.64169922 -24.86191406 0.59980469 -23.93554688 0.55664062 C-22.51338867 0.49766602 -22.51338867 0.49766602 -21.0625 0.4375 C-20.14919922 0.39431641 -19.23589844 0.35113281 -18.29492188 0.30664062 C-12.19301928 0.03458127 -6.10749228 -0.05222913 0 0 Z " fill="#F1F4EF" transform="translate(666,322)"/>
<path d="M0 0 C-0.33 2.31 -0.66 4.62 -1 7 C-1.99 6.67 -2.98 6.34 -4 6 C-4 7.65 -4 9.3 -4 11 C-4.66 11 -5.32 11 -6 11 C-8.53616668 12.1453656 -10.67071008 13.44714005 -13 15 C-13.99 14.67 -14.98 14.34 -16 14 C-13.77733647 11.77733647 -11.5542869 9.5550989 -9.328125 7.3359375 C-7.99436378 5.99770057 -6.66706022 4.65279138 -5.359375 3.2890625 C-2.20339595 0 -2.20339595 0 0 0 Z " fill="#F2F3F6" transform="translate(576,564)"/>
<path d="M0 0 C1.1725131 0.95117134 2.33787015 1.91117009 3.5 2.875 C4.1496875 3.40867187 4.799375 3.94234375 5.46875 4.4921875 C6.22671875 5.23855469 6.22671875 5.23855469 7 6 C7 6.66 7 7.32 7 8 C2.05 7.67 -2.9 7.34 -8 7 C-7 3 -7 3 -5 1 C-3.68 1.99 -2.36 2.98 -1 4 C-0.67 2.68 -0.34 1.36 0 0 Z " fill="#1C1A25" transform="translate(672,412)"/>
<path d="M0 0 C2.69082872 0.17635452 5.32851446 0.61835921 8 1 C7.67 1.66 7.34 2.32 7 3 C6.9310528 4.37342831 6.91532292 5.75002102 6.9375 7.125 C6.958125 8.40375 6.97875 9.6825 7 11 C4 11 4 11 1.73828125 9.03125 C0.93777344 8.1959375 0.13726563 7.360625 -0.6875 6.5 C-1.49574219 5.6646875 -2.30398438 4.829375 -3.13671875 3.96875 C-3.75160156 3.3190625 -4.36648438 2.669375 -5 2 C-4.360625 1.855625 -3.72125 1.71125 -3.0625 1.5625 C-1.02454854 1.18992819 -1.02454854 1.18992819 0 0 Z " fill="#1A1A26" transform="translate(552,312)"/>
<path d="M0 0 C1.50559539 1.96382007 2.89131683 3.78263366 4 6 C2 9 2 9 0 10 C-0.66 9.67 -1.32 9.34 -2 9 C-1.67 11.31 -1.34 13.62 -1 16 C-2.32 16 -3.64 16 -5 16 C-5.66 16.33 -6.32 16.66 -7 17 C-7.66 16.34 -8.32 15.68 -9 15 C-9.99 14.34 -10.98 13.68 -12 13 C-11.45730469 12.76925781 -10.91460938 12.53851562 -10.35546875 12.30078125 C-5.82517297 10.23561939 -3.03219982 8.78164664 -1 4 C-0.30420546 1.80869466 -0.30420546 1.80869466 0 0 Z " fill="#E9E9E8" transform="translate(665,646)"/>
<path d="M0 0 C0.66 0.33 1.32 0.66 2 1 C2 1.66 2 2.32 2 3 C2.99 3.33 3.98 3.66 5 4 C4.67 4.66 4.34 5.32 4 6 C3.01 5.67 2.02 5.34 1 5 C-2.91175542 7.07812007 -4.24476928 10.05073088 -6 14 C-6.33 13.01 -6.66 12.02 -7 11 C-7.99 11 -8.98 11 -10 11 C-7.75300597 5.31642687 -4.99067362 3.20156421 0 0 Z " fill="#EAEBED" transform="translate(355,328)"/>
<path d="M0 0 C0.33 0.66 0.66 1.32 1 2 C1.99 2.33 2.98 2.66 4 3 C3.52949219 3.39832031 3.05898438 3.79664063 2.57421875 4.20703125 C1.95160156 4.73683594 1.32898438 5.26664063 0.6875 5.8125 C0.07261719 6.33457031 -0.54226563 6.85664062 -1.17578125 7.39453125 C-2.84469411 8.86331751 -4.42796259 10.42796259 -6 12 C-6.66 8.7 -7.32 5.4 -8 2 C-5.33333333 1.33333333 -2.66666667 0.66666667 0 0 Z " fill="#161724" transform="translate(497,632)"/>
<path d="M0 0 C0.66 0.33 1.32 0.66 2 1 C1.34 2.65 0.68 4.3 0 6 C-3.3 6 -6.6 6 -10 6 C-10 5.67 -10 5.34 -10 5 C-22.87 4.505 -22.87 4.505 -36 4 C-36 3.67 -36 3.34 -36 3 C-35.05157227 2.98018066 -34.10314453 2.96036133 -33.12597656 2.93994141 C-29.59967636 2.86174239 -26.07379639 2.77504634 -22.54785156 2.68261719 C-21.02319342 2.64438734 -19.49844693 2.609524 -17.97363281 2.578125 C-15.77897619 2.53234338 -13.5849246 2.47437234 -11.390625 2.4140625 C-10.7113092 2.40251129 -10.03199341 2.39096008 -9.33209229 2.37905884 C-5.67244945 2.26550436 -3.19361384 1.75058046 0 0 Z " fill="#BABDB9" transform="translate(658,586)"/>
<path d="M0 0 C3.83203643 3.42866417 5.88814931 5.94613321 7 11 C7.07522969 13.33212027 7.09325876 15.6685311 7 18 C6.67 17.34 6.34 16.68 6 16 C5.34 16 4.68 16 4 16 C3.67 14.02 3.34 12.04 3 10 C2.34 10 1.68 10 1 10 C-0.60725635 6.78548731 -0.05748185 3.56387464 0 0 Z " fill="#1F1D26" transform="translate(409,627)"/>
<path d="M0 0 C1.1055189 0.93590504 2.20935453 1.87379858 3.3125 2.8125 C3.92738281 3.33457031 4.54226563 3.85664062 5.17578125 4.39453125 C6.85424679 5.87172469 8.43882034 7.40039131 10 9 C9.34 10.32 8.68 11.64 8 13 C7.01 13 6.02 13 5 13 C4.38125 11.6078125 4.38125 11.6078125 3.75 10.1875 C2.06558214 7.11945319 0.91545917 5.80959535 -2 4 C-1.34 4 -0.68 4 0 4 C0 2.68 0 1.36 0 0 Z " fill="#E0E1DF" transform="translate(470,586)"/>
<path d="M0 0 C0.99 0 1.98 0 3 0 C2.91291962 2.10494301 2.80474307 4.20902142 2.6875 6.3125 C2.62949219 7.48425781 2.57148438 8.65601563 2.51171875 9.86328125 C1.96492774 13.21498491 1.55435879 13.95020591 -1 16 C-1.66 16.99 -2.32 17.98 -3 19 C-3.38614349 12.1781317 -2.00865708 6.50422293 0 0 Z " fill="#E8EDEE" transform="translate(323,370)"/>
<path d="M0 0 C4.57071175 0.34495938 7.58325171 0.85659158 11 4 C10.34 4 9.68 4 9 4 C9 4.99 9 5.98 9 7 C7.35 7.33 5.7 7.66 4 8 C2.35 5.69 0.7 3.38 -1 1 C-0.67 0.67 -0.34 0.34 0 0 Z " fill="#E7E8E8" transform="translate(511,286)"/>
<path d="M0 0 C2.475 0.495 2.475 0.495 5 1 C5.33 1.99 5.66 2.98 6 4 C6.66 4 7.32 4 8 4 C9.40234375 5.42578125 9.40234375 5.42578125 10.9375 7.3125 C12.86463171 9.66350211 14.81719293 11.88235135 17 14 C16.34 14.66 15.68 15.32 15 16 C12.49599357 13.5248518 9.99748094 11.04423106 7.5 8.5625 C6.78457031 7.85544922 6.06914063 7.14839844 5.33203125 6.41992188 C4.65527344 5.74638672 3.97851562 5.07285156 3.28125 4.37890625 C2.65283203 3.7557251 2.02441406 3.13254395 1.37695312 2.49047852 C0 1 0 1 0 0 Z " fill="#E2E0E3" transform="translate(556,609)"/>
<path d="M0 0 C1.0625 1.875 1.0625 1.875 2 4 C1.67 4.66 1.34 5.32 1 6 C0.34 6 -0.32 6 -1 6 C-0.34 8.31 0.32 10.62 1 13 C-0.98 13.99 -0.98 13.99 -3 15 C-6 12 -6 12 -7 9 C-6.21625 8.2575 -5.4325 7.515 -4.625 6.75 C-2.43495469 4.45566682 -1.17268614 2.87841142 0 0 Z " fill="#EAE9E7" transform="translate(414,577)"/>
<path d="M0 0 C-0.99 1.485 -0.99 1.485 -2 3 C-1.67 3.66 -1.34 4.32 -1 5 C-3.01822917 4.73958333 -5.03645833 4.47916667 -7.0546875 4.21875 C-9.00498344 3.9627515 -9.00498344 3.9627515 -11 4 C-10.67 4.66 -10.34 5.32 -10 6 C-12.97 5.505 -12.97 5.505 -16 5 C-15.67 4.01 -15.34 3.02 -15 2 C-12.3828125 0.76171875 -12.3828125 0.76171875 -9.125 -0.3125 C-7.52011719 -0.86357422 -7.52011719 -0.86357422 -5.8828125 -1.42578125 C-3 -2 -3 -2 0 0 Z " fill="#E5E8E3" transform="translate(465,512)"/>
<path d="M0 0 C0.33 0.99 0.66 1.98 1 3 C-1.97 3.66 -4.94 4.32 -8 5 C-8.33 4.34 -8.66 3.68 -9 3 C-11.01669827 1.86649466 -11.01669827 1.86649466 -13 1 C-11.68 1 -10.36 1 -9 1 C-9 0.34 -9 -0.32 -9 -1 C-5.19881294 -2.26706235 -3.6149628 -1.57172296 0 0 Z " fill="#F5F5ED" transform="translate(661,706)"/>
<path d="M0 0 C0.66 0.66 1.32 1.32 2 2 C1.030625 2.28875 0.06125 2.5775 -0.9375 2.875 C-4.10664203 3.64214682 -4.10664203 3.64214682 -5 6 C-7.97 6 -10.94 6 -14 6 C-9.57585915 1.25984909 -6.62198482 -0.57582477 0 0 Z " fill="#18181C" transform="translate(622,553)"/>
<path d="M0 0 C0.66 0 1.32 0 2 0 C3.31567432 8.71634238 3.54659574 17.30039898 2 26 C1.67 26 1.34 26 1 26 C0.67 17.42 0.34 8.84 0 0 Z " fill="#0C0A15" transform="translate(721,382)"/>
<path d="M0 0 C0.99 0.33 1.98 0.66 3 1 C2.54300722 6.02692063 0.00758252 9.14896261 -3 13 C-4.13583456 9.28272326 -3.66670026 7.52948291 -2 4 C-2.66 3.67 -3.32 3.34 -4 3 C-3.34 3 -2.68 3 -2 3 C-1.67 2.34 -1.34 1.68 -1 1 C-0.67 0.67 -0.34 0.34 0 0 Z " fill="#EEECE9" transform="translate(708,664)"/>
<path d="M0 0 C0.99 0.33 1.98 0.66 3 1 C3 1.66 3 2.32 3 3 C3.66 3.33 4.32 3.66 5 4 C3.68799596 5.35432675 2.35368596 6.68733482 1 8 C0 8 -1 8 -2 8 C-2 7.34 -2 6.68 -2 6 C-2.99 6 -3.98 6 -5 6 C-3.86525052 2.59575156 -3.03188696 1.78346291 0 0 Z " fill="#EEEEEB" transform="translate(411,654)"/>
<path d="M0 0 C0.66 0.66 1.32 1.32 2 2 C2.99 2.33 3.98 2.66 5 3 C3.68 3.33 2.36 3.66 1 4 C1 5.32 1 6.64 1 8 C-5.625 9 -5.625 9 -9 9 C-7.625 7.5 -7.625 7.5 -6 6 C-5.34 6 -4.68 6 -4 6 C-3.71125 5.38125 -3.4225 4.7625 -3.125 4.125 C-2 2 -2 2 0 0 Z " fill="#E0E1E4" transform="translate(559,579)"/>
<path d="M0 0 C0.33 0.99 0.66 1.98 1 3 C1.66 3 2.32 3 3 3 C2.875 4.75 2.875 4.75 2 7 C-1.0625 9.25 -1.0625 9.25 -4 11 C-4 10.34 -4 9.68 -4 9 C-5.32 8.67 -6.64 8.34 -8 8 C-5.69 7.34 -3.38 6.68 -1 6 C-1.20625 5.38125 -1.4125 4.7625 -1.625 4.125 C-1.74875 3.42375 -1.8725 2.7225 -2 2 C-1.34 1.34 -0.68 0.68 0 0 Z " fill="#1D1E28" transform="translate(660,577)"/>
<path d="M0 0 C4.875 4.625 4.875 4.625 6 8 C5.67 8.66 5.34 9.32 5 10 C4.34 10 3.68 10 3 10 C3 9.34 3 8.68 3 8 C2.34 8 1.68 8 1 8 C1 7.01 1 6.02 1 5 C-1.475 4.01 -1.475 4.01 -4 3 C-2.68 2.01 -1.36 1.02 0 0 Z " fill="#1C1A25" transform="translate(408,555)"/>
<path d="M0 0 C0.99 0.33 1.98 0.66 3 1 C0.92642695 2.22856207 -1.15596754 3.43225346 -3.25 4.625 C-3.83652344 4.975625 -4.42304688 5.32625 -5.02734375 5.6875 C-6.765625 6.6640625 -6.765625 6.6640625 -10 8 C-12.421875 7.2109375 -12.421875 7.2109375 -14 6 C-13.4225 5.731875 -12.845 5.46375 -12.25 5.1875 C-9.95215329 4.07576415 -9.95215329 4.07576415 -8.0625 2.375 C-5.52571368 0.68380912 -3.98695795 0.83854281 -1 1 C-0.67 0.67 -0.34 0.34 0 0 Z " fill="#171A1D" transform="translate(472,503)"/>
<path d="M0 0 C0 0.66 0 1.32 0 2 C-0.78375 2.61875 -1.5675 3.2375 -2.375 3.875 C-4.86229156 5.88852174 -5.85538266 7.08642859 -7 10 C-8.32 10 -9.64 10 -11 10 C-9.64717831 5.57258356 -7.76701112 3.63690779 -4 1 C-2 0 -2 0 0 0 Z " fill="#1C1A21" transform="translate(387,374)"/>
<path d="M0 0 C0.33 0.99 0.66 1.98 1 3 C3.50447516 4.21869929 3.50447516 4.21869929 6 5 C5.67 5.99 5.34 6.98 5 8 C1.04 6.35 -2.92 4.7 -7 3 C-7 2.34 -7 1.68 -7 1 C-2.25 0 -2.25 0 0 0 Z " fill="#1E2227" transform="translate(680,322)"/>
<path d="M0 0 C0.66 0 1.32 0 2 0 C0.36228672 5.40445384 -3.19845018 10.4596461 -8.1953125 13.20703125 C-8.79085938 13.46871094 -9.38640625 13.73039063 -10 14 C-10 11 -10 11 -8.57421875 9.5703125 C-7.95160156 9.09335937 -7.32898438 8.61640625 -6.6875 8.125 C-3.66462687 5.68719909 -1.90578072 3.41034445 0 0 Z " fill="#D4D4D6" transform="translate(511,829)"/>
<path d="M0 0 C0.66 0 1.32 0 2 0 C1.43040847 3.62613199 0.07625466 5.25517741 -2.5625 7.75 C-3.52349609 8.67039062 -3.52349609 8.67039062 -4.50390625 9.609375 C-5.24447266 10.29773438 -5.24447266 10.29773438 -6 11 C-6.33 10.01 -6.66 9.02 -7 8 C-7.66 7.67 -8.32 7.34 -9 7 C-7.35 6.67 -5.7 6.34 -4 6 C-4.33 5.01 -4.66 4.02 -5 3 C-3.35 3 -1.7 3 0 3 C0 2.01 0 1.02 0 0 Z " fill="#1F1F28" transform="translate(486,645)"/>
<path d="M0 0 C0.33 0.99 0.66 1.98 1 3 C1.66 3.33 2.32 3.66 3 4 C2.34 4 1.68 4 1 4 C1 4.66 1 5.32 1 6 C1.66 6.33 2.32 6.66 3 7 C2.01 7 1.02 7 0 7 C-0.33 7.99 -0.66 8.98 -1 10 C-3.0625 10.6875 -3.0625 10.6875 -5 11 C-4.46884894 6.48521602 -2.63379708 3.65333143 0 0 Z " fill="#E4E4EA" transform="translate(385,295)"/>
<path d="M0 0 C1.46015291 0.28241641 2.91809793 0.57626614 4.375 0.875 C5.18710937 1.03742188 5.99921875 1.19984375 6.8359375 1.3671875 C9 2 9 2 11 4 C6.74433453 5.16063604 3.3164922 4.76173392 -1 4 C-0.67 2.68 -0.34 1.36 0 0 Z " fill="#EBF0E7" transform="translate(667,323)"/>
<path d="M0 0 C4.6875 3.61328125 4.6875 3.61328125 6 5 C6 5.99 6 6.98 6 8 C4.68 8.33 3.36 8.66 2 9 C1.67 8.34 1.34 7.68 1 7 C0.67 7.66 0.34 8.32 0 9 C-0.66 8.67 -1.32 8.34 -2 8 C-1.47731534 5.23723823 -0.89130413 2.6739124 0 0 Z " fill="#EDECE9" transform="translate(378,653)"/>
<path d="M0 0 C1.32 0.33 2.64 0.66 4 1 C4.33 2.65 4.66 4.3 5 6 C3.68 6 2.36 6 1 6 C1 6.66 1 7.32 1 8 C0.34 8 -0.32 8 -1 8 C-1.93065133 5.39417629 -2.14917407 4.35801776 -1.0625 1.75 C-0.711875 1.1725 -0.36125 0.595 0 0 Z " fill="#1A1726" transform="translate(322,653)"/>
<path d="M0 0 C0 0.66 0 1.32 0 2 C-0.66 2 -1.32 2 -2 2 C-2 2.66 -2 3.32 -2 4 C-2.66 4 -3.32 4 -4 4 C-4.33 3.34 -4.66 2.68 -5 2 C-5.66 1.855625 -6.32 1.71125 -7 1.5625 C-7.66 1.376875 -8.32 1.19125 -9 1 C-9.33 0.01 -9.66 -0.98 -10 -2 C-5.82412255 -3.39195915 -3.86525224 -1.82323219 0 0 Z " fill="#19191E" transform="translate(660,556)"/>
<path d="M0 0 C0.99 0.33 1.98 0.66 3 1 C3.33 1.99 3.66 2.98 4 4 C-2.93 4 -9.86 4 -17 4 C-17 3.67 -17 3.34 -17 3 C-8.585 2.01 -8.585 2.01 0 1 C0 0.67 0 0.34 0 0 Z " fill="#FCFDF5" transform="translate(433,474)"/>
<path d="M0 0 C2.67085649 0.91810692 3.75773089 1.55583997 5.125 4.0625 C5.41375 4.701875 5.7025 5.34125 6 6 C6.66 6.33 7.32 6.66 8 7 C7.67 7.66 7.34 8.32 7 9 C6.01 9 5.02 9 4 9 C2.39453125 7.25 2.39453125 7.25 0.8125 5 C0.28269531 4.2575 -0.24710937 3.515 -0.79296875 2.75 C-1.19128906 2.1725 -1.58960938 1.595 -2 1 C-1.34 0.67 -0.68 0.34 0 0 Z " fill="#E5E4E3" transform="translate(340,677)"/>
<path d="M0 0 C0.66 0.66 1.32 1.32 2 2 C2.66 1.67 3.32 1.34 4 1 C5.09658936 4.28976808 4.79953138 5.71303767 4 9 C-1.875 4.375 -1.875 4.375 -3 1 C-2.01 0.67 -1.02 0.34 0 0 Z " fill="#1B1B24" transform="translate(450,648)"/>
<path d="M0 0 C0.64453125 1.828125 0.64453125 1.828125 1 4 C-1.3125 6.75 -1.3125 6.75 -4 9 C-4.66 9 -5.32 9 -6 9 C-6.66 9.99 -7.32 10.98 -8 12 C-8 8 -8 8 -6.25 5.859375 C-5.5075 5.16328125 -4.765 4.4671875 -4 3.75 C-3.2575 3.04359375 -2.515 2.3371875 -1.75 1.609375 C-1.1725 1.07828125 -0.595 0.5471875 0 0 Z " fill="#0E0C10" transform="translate(462,614)"/>
<path d="M0 0 C0.99 0.99 1.98 1.98 3 3 C1.50902342 6.7952131 -0.75700849 8.61042731 -4 11 C-4 8 -4 8 -3 7 C-3.33 6.34 -3.66 5.68 -4 5 C-3.34 5 -2.68 5 -2 5 C-2 4.34 -2 3.68 -2 3 C-1.34 3 -0.68 3 0 3 C0 2.01 0 1.02 0 0 Z " fill="#ECECEA" transform="translate(469,600)"/>
<path d="M0 0 C2.18994248 3.28491373 2.35277339 4.83095639 2.625 8.6875 C2.69976562 9.68136719 2.77453125 10.67523437 2.8515625 11.69921875 C2.92503906 12.83810547 2.92503906 12.83810547 3 14 C2.01 13.67 1.02 13.34 0 13 C-0.94738023 10.15785932 -1.13460559 8.32391609 -1.125 5.375 C-1.12757813 4.57835937 -1.13015625 3.78171875 -1.1328125 2.9609375 C-1 1 -1 1 0 0 Z " fill="#1B1822" transform="translate(446,547)"/>
<path d="M0 0 C0.99 0.33 1.98 0.66 3 1 C1.73058503 4.91402949 0.48832306 6.79072873 -3 9 C-3 8.01 -3 7.02 -3 6 C-3.99 5.67 -4.98 5.34 -6 5 C-5.01 5 -4.02 5 -3 5 C-2.67 4.01 -2.34 3.02 -2 2 C-1.34 1.34 -0.68 0.68 0 0 Z " fill="#191824" transform="translate(661,491)"/>
<path d="M0 0 C0.99 0.33 1.98 0.66 3 1 C3.6875 3.0625 3.6875 3.0625 4 5 C2.35 6.32 0.7 7.64 -1 9 C-1.625 6.1875 -1.625 6.1875 -2 3 C-1.34 2.01 -0.68 1.02 0 0 Z " fill="#E4E4DF" transform="translate(694,681)"/>
<path d="M0 0 C0.99 0.99 1.98 1.98 3 3 C2.3125 5.875 2.3125 5.875 1 9 C-0.65 9.66 -2.3 10.32 -4 11 C-2.68 7.37 -1.36 3.74 0 0 Z " fill="#1B1A21" transform="translate(716,654)"/>
<path d="M0 0 C0.99 0 1.98 0 3 0 C3.33 0.66 3.66 1.32 4 2 C4.99 2 5.98 2 7 2 C7 6 7 6 6 9 C4.99406757 7.8803014 3.9954151 6.7540588 3 5.625 C2.443125 4.99851562 1.88625 4.37203125 1.3125 3.7265625 C0 2 0 2 0 0 Z " fill="#1A1A26" transform="translate(606,649)"/>
<path d="M0 0 C3.21043882 1.38188453 5.04936365 2.92421903 7.25 5.625 C8.03117188 6.57246094 8.03117188 6.57246094 8.828125 7.5390625 C9.40820312 8.26222656 9.40820312 8.26222656 10 9 C9.01 9.33 8.02 9.66 7 10 C6.01 9.34 5.02 8.68 4 8 C4 7.01 4 6.02 4 5 C3.01 4.67 2.02 4.34 1 4 C0.3125 1.9375 0.3125 1.9375 0 0 Z " fill="#27252D" transform="translate(593,332)"/>
<path d="M0 0 C0.33 0.66 0.66 1.32 1 2 C1.66 2.33 2.32 2.66 3 3 C2.01 3 1.02 3 0 3 C0 3.66 0 4.32 0 5 C0.66 5.33 1.32 5.66 2 6 C-1.3 5.34 -4.6 4.68 -8 4 C-5.33440687 2.22293791 -2.9719385 1.12451727 0 0 Z M-3 6 C-1 7 -1 7 -1 7 Z " fill="#E5E7E1" transform="translate(477,657)"/>
<path d="M0 0 C3.7952131 1.49097658 5.61042731 3.75700849 8 7 C7.05125 6.979375 6.1025 6.95875 5.125 6.9375 C2.09333717 6.77448174 2.09333717 6.77448174 0 8 C0 5.36 0 2.72 0 0 Z " fill="#EAEBEE" transform="translate(510,624)"/>
<path d="M0 0 C1.65 0 3.3 0 5 0 C5.99 1.98 6.98 3.96 8 6 C5.69 5.67 3.38 5.34 1 5 C0.67 3.35 0.34 1.7 0 0 Z " fill="#0C0A17" transform="translate(537,593)"/>
<path d="M0 0 C1.12894876 0.93274109 2.25300876 1.87140122 3.375 2.8125 C4.00148438 3.33457031 4.62796875 3.85664063 5.2734375 4.39453125 C7 6 7 6 9 9 C5.79604584 9 3.90600261 8.25664978 1 7 C0.67 4.69 0.34 2.38 0 0 Z " fill="#9797A2" transform="translate(559,326)"/>
<path d="M0 0 C1.12148438 0.00322266 2.24296875 0.00644531 3.3984375 0.00976562 C4.5740625 0.01814453 5.7496875 0.02652344 6.9609375 0.03515625 C8.14429688 0.03966797 9.32765625 0.04417969 10.546875 0.04882812 C13.47661257 0.06064158 16.40625022 0.07711367 19.3359375 0.09765625 C19.3359375 0.42765625 19.3359375 0.75765625 19.3359375 1.09765625 C18.64967285 1.1227124 17.9634082 1.14776855 17.25634766 1.17358398 C14.15767933 1.28937052 11.05932827 1.4121751 7.9609375 1.53515625 C6.88070312 1.57447266 5.80046875 1.61378906 4.6875 1.65429688 C3.65625 1.69619141 2.625 1.73808594 1.5625 1.78125 C0.60939941 1.81790771 -0.34370117 1.85456543 -1.32568359 1.89233398 C-3.68538599 1.9552909 -3.68538599 1.9552909 -5.6640625 3.09765625 C-6.3240625 2.43765625 -6.9840625 1.77765625 -7.6640625 1.09765625 C-5.00228029 -0.23323485 -2.97666854 -0.01503368 0 0 Z " fill="#C1C6C7" transform="translate(596.6640625,320.90234375)"/>
<path d="M0 0 C0.99 0.33 1.98 0.66 3 1 C2.1875 3.4375 2.1875 3.4375 1 6 C0.01 6.33 -0.98 6.66 -2 7 C-4.1875 5.5625 -4.1875 5.5625 -6 4 C-3.1875 1.9375 -3.1875 1.9375 0 0 Z " fill="#18161D" transform="translate(685,696)"/>
<path d="M0 0 C1.32 0 2.64 0 4 0 C2.68775452 3.93673644 1.08089673 6.22719294 -2 9 C-2.25 3.375 -2.25 3.375 0 0 Z " fill="#20222D" transform="translate(661,648)"/>
<path d="M0 0 C0.99 0.66 1.98 1.32 3 2 C2.22914063 2.04898438 1.45828125 2.09796875 0.6640625 2.1484375 C-0.33882813 2.22320313 -1.34171875 2.29796875 -2.375 2.375 C-3.37273437 2.44460938 -4.37046875 2.51421875 -5.3984375 2.5859375 C-8.15508879 2.76363964 -8.15508879 2.76363964 -10 5 C-10 4.34 -10 3.68 -10 3 C-10.99 2.67 -11.98 2.34 -13 2 C-8.48038922 -0.25980539 -4.95745506 -0.31983581 0 0 Z " fill="#29272C" transform="translate(398,622)"/>
<path d="M0 0 C1.98272184 2.97408276 2.82813436 4.47675428 3 8 C1.0625 10.3125 1.0625 10.3125 -1 12 C-1.66 11.67 -2.32 11.34 -3 11 C-2.690625 10.29875 -2.38125 9.5975 -2.0625 8.875 C-0.96697322 5.91063343 -0.43577008 3.12301892 0 0 Z " fill="#E7E8E9" transform="translate(578,551)"/>
<path d="M0 0 C3.14928659 0.69984146 6.01397009 1.78944733 9 3 C9.33 3 9.66 3 10 3 C10 5.64 10 8.28 10 11 C9.46375 10.278125 8.9275 9.55625 8.375 8.8125 C6.53443943 6.6328888 4.9291455 5.0212012 2.75 3.25 C1.8425 2.5075 0.935 1.765 0 1 C0 0.67 0 0.34 0 0 Z " fill="#1A1B22" transform="translate(452,418)"/>
<path d="M0 0 C3 3.75 3 3.75 3 6 C1.68 6 0.36 6 -1 6 C-1.66 6.66 -2.32 7.32 -3 8 C-3.99 7.34 -4.98 6.68 -6 6 C-4.02 4.02 -2.04 2.04 0 0 Z " fill="#0C0B12" transform="translate(469,607)"/>
<path d="M0 0 C0.33 0.99 0.66 1.98 1 3 C0.01 3.33 -0.98 3.66 -2 4 C-2.34342449 5.33076989 -2.67619874 6.66431979 -3 8 C-3.99 8.66 -4.98 9.32 -6 10 C-6.99 9.67 -7.98 9.34 -9 9 C-6.03 6.03 -3.06 3.06 0 0 Z " fill="#D9DCE1" transform="translate(569,569)"/>
<path d="M0 0 C0.66 0.33 1.32 0.66 2 1 C-0.64 3.64 -3.28 6.28 -6 9 C-7 5 -7 5 -7 2 C-4.525 2.495 -4.525 2.495 -2 3 C-2 2.34 -2 1.68 -2 1 C-1.34 0.67 -0.68 0.34 0 0 Z " fill="#090D16" transform="translate(568,568)"/>
<path d="M0 0 C1.37562854 1.28965176 2.70766393 2.62689293 4 4 C4 4.66 4 5.32 4 6 C4.99 6.33 5.98 6.66 7 7 C5.68 8.32 4.36 9.64 3 11 C2.690625 10.195625 2.38125 9.39125 2.0625 8.5625 C1.23664655 6.10919595 1.23664655 6.10919595 0 5 C-0.04063832 3.33382885 -0.042721 1.66611905 0 0 Z " fill="#DFE1DD" transform="translate(447,562)"/>
<path d="M0 0 C2.64 1.98 5.28 3.96 8 6 C7.01 7.485 7.01 7.485 6 9 C6 8.34 6 7.68 6 7 C5.34 7 4.68 7 4 7 C4 6.34 4 5.68 4 5 C3.01 5.33 2.02 5.66 1 6 C-0.0625 4.125 -0.0625 4.125 -1 2 C-0.67 1.34 -0.34 0.68 0 0 Z " fill="#1B1B20" transform="translate(349,690)"/>
<path d="M0 0 C0.268125 0.598125 0.53625 1.19625 0.8125 1.8125 C1.8893979 4.04327908 1.8893979 4.04327908 3.625 5.625 C4.07875 6.07875 4.5325 6.5325 5 7 C5 7.66 5 8.32 5 9 C1.59679258 7.98823563 0.24274669 7.35156418 -1.8125 4.375 C-2.204375 3.59125 -2.59625 2.8075 -3 2 C-2.01 2 -1.02 2 0 2 C0 1.34 0 0.68 0 0 Z " fill="#1F1E28" transform="translate(381,650)"/>
<path d="M0 0 C0.99 0.33 1.98 0.66 3 1 C0.375 6.75 0.375 6.75 -3 9 C-3 8.34 -3 7.68 -3 7 C-3.66 6.67 -4.32 6.34 -5 6 C-3.35 4.02 -1.7 2.04 0 0 Z " fill="#E6EAF1" transform="translate(493,485)"/>
<path d="M0 0 C-0.15481795 2.70931419 -0.48172081 4.46584039 -2.40234375 6.4453125 C-3.89771708 7.67679642 -5.4462924 8.8429837 -7 10 C-6.55090939 8.51800098 -6.09043436 7.03944764 -5.625 5.5625 C-5.36976563 4.73878906 -5.11453125 3.91507812 -4.8515625 3.06640625 C-3.73877887 0.36611937 -2.88484143 0 0 0 Z " fill="#0A0C13" transform="translate(487,489)"/>
<path d="M0 0 C0.66 0 1.32 0 2 0 C2.6875 1.8125 2.6875 1.8125 3 4 C1.6875 5.5625 1.6875 5.5625 0 7 C-0.66 7.99 -1.32 8.98 -2 10 C-2.1953125 3.9453125 -2.1953125 3.9453125 -2 2 C-1.34 1.34 -0.68 0.68 0 0 Z " fill="#DFE2E1" transform="translate(322,379)"/>
<path d="M0 0 C0.66 0.66 1.32 1.32 2 2 C1.01 4.31 0.02 6.62 -1 9 C-1.33 8.34 -1.66 7.68 -2 7 C-2.66 7 -3.32 7 -4 7 C-3.43628586 3.73045798 -2.50037734 2.17424117 0 0 Z " fill="#ECEDF2" transform="translate(390,291)"/>
<path d="M0 0 C1.299375 0.7115625 1.299375 0.7115625 2.625 1.4375 C5.85387374 2.93234895 8.49033826 3.58218313 12 4 C12 4.33 12 4.66 12 5 C7.52888724 5.85982938 4.95677641 6.34475639 1 4 C0.01 4.495 0.01 4.495 -1 5 C-0.67 3.35 -0.34 1.7 0 0 Z " fill="#E1E2E0" transform="translate(610,585)"/>
<path d="M0 0 C-0.33 1.65 -0.66 3.3 -1 5 C-2.65 5.33 -4.3 5.66 -6 6 C-6 4.68 -6 3.36 -6 2 C-2.25 0 -2.25 0 0 0 Z " fill="#1C1C24" transform="translate(389,552)"/>
<path d="M0 0 C1.8871875 0.061875 1.8871875 0.061875 3.8125 0.125 C1.6634432 2.59641532 0.12370491 3.82398137 -3.1875 4.125 C-5.4375 3.1875 -5.4375 3.1875 -7.1875 2.125 C-4.09861478 0.06574319 -3.47814073 -0.1140374 0 0 Z " fill="#0D0C14" transform="translate(559.1875,531.875)"/>
<path d="M0 0 C1 3 1 3 0.0625 5.1875 C-0.4634375 6.0846875 -0.4634375 6.0846875 -1 7 C-1.66 7 -2.32 7 -3 7 C-3.33 7.66 -3.66 8.32 -4 9 C-5.32 9 -6.64 9 -8 9 C-8 8.34 -8 7.68 -8 7 C-6.00669158 5.65668346 -4.00615134 4.32405988 -2 3 C-1.34 2.01 -0.68 1.02 0 0 Z " fill="#E6E5E6" transform="translate(663,494)"/>
<path d="M0 0 C0.94875 0.350625 1.8975 0.70125 2.875 1.0625 C1.885 1.5575 1.885 1.5575 0.875 2.0625 C0.875 2.7225 0.875 3.3825 0.875 4.0625 C-0.445 4.3925 -1.765 4.7225 -3.125 5.0625 C-3.455 4.0725 -3.785 3.0825 -4.125 2.0625 C-4.455 1.4025 -4.785 0.7425 -5.125 0.0625 C-3.125 -0.9375 -3.125 -0.9375 0 0 Z " fill="#1B1B27" transform="translate(547.125,466.9375)"/>
<path d="M0 0 C1.9375 0.1875 1.9375 0.1875 4 1 C5.25 3.0625 5.25 3.0625 6 5 C5.34 5.66 4.68 6.32 4 7 C2.35 5.02 0.7 3.04 -1 1 C-0.67 0.67 -0.34 0.34 0 0 Z " fill="#1D1B26" transform="translate(576,341)"/>
<path d="M0 0 C1.50559539 1.96382007 2.89131683 3.78263366 4 6 C3.01 7.485 3.01 7.485 2 9 C2 8.34 2 7.68 2 7 C0.35 7.33 -1.3 7.66 -3 8 C-2.01 5.36 -1.02 2.72 0 0 Z " fill="#E0DFE2" transform="translate(665,646)"/>
<path d="M0 0 C3 0 3 0 4.38671875 1.3125 C5.59114583 2.875 6.79557292 4.4375 8 6 C7.34 6.66 6.68 7.32 6 8 C4.99403703 7.0479279 3.99538437 6.08812654 3 5.125 C2.443125 4.59132813 1.88625 4.05765625 1.3125 3.5078125 C0 2 0 2 0 0 Z " fill="#E8E6E8" transform="translate(565,617)"/>
<path d="M0 0 C1.125 3.75 1.125 3.75 0 6 C-1.32 6 -2.64 6 -4 6 C-4.33 4.68 -4.66 3.36 -5 2 C-3.35 2 -1.7 2 0 2 C0 1.34 0 0.68 0 0 Z " fill="#F0EEEE" transform="translate(382,310)"/>
<path d="M0 0 C1.98 1.65 3.96 3.3 6 5 C5.67 5.66 5.34 6.32 5 7 C4.34 7 3.68 7 3 7 C3 6.34 3 5.68 3 5 C2.01 5.33 1.02 5.66 0 6 C-1 3 -1 3 0 0 Z " fill="#E3E2E0" transform="translate(537,303)"/>
<path d="M0 0 C1.9375 0.375 1.9375 0.375 4 1 C4.33 1.66 4.66 2.32 5 3 C4.0625 5.125 4.0625 5.125 3 7 C2.34 7 1.68 7 1 7 C0.67 4.69 0.34 2.38 0 0 Z " fill="#F1F1E8" transform="translate(604,624)"/>
<path d="M0 0 C2.0625 1.6875 2.0625 1.6875 4 4 C3.75 6.75 3.75 6.75 3 9 C2.34 9 1.68 9 1 9 C0.01 6.36 -0.98 3.72 -2 1 C-1.34 0.67 -0.68 0.34 0 0 Z " fill="#201F26" transform="translate(661,558)"/>
<path d="M0 0 C4.95 0 9.9 0 15 0 C15 0.33 15 0.66 15 1 C12.02148438 1.34179688 12.02148438 1.34179688 9.04296875 1.68359375 C6.80603607 1.97170735 6.80603607 1.97170735 4 3 C2.68 2.01 1.36 1.02 0 0 Z " fill="#0C0D11" transform="translate(554,465)"/>
<path d="M0 0 C0 3 0 3 -1 5 C-0.67 5.99 -0.34 6.98 0 8 C-0.99 8.495 -0.99 8.495 -2 9 C-2.66 9.99 -3.32 10.98 -4 12 C-4.49230769 4.61538462 -4.49230769 4.61538462 -2 1.5 C-1.34 1.005 -0.68 0.51 0 0 Z " fill="#DDDEE5" transform="translate(345,335)"/>
<path d="M0 0 C3.3 0 6.6 0 10 0 C8.515 1.98 8.515 1.98 7 4 C6.34 4 5.68 4 5 4 C5 3.34 5 2.68 5 2 C4.01 2.33 3.02 2.66 2 3 C1.34 2.67 0.68 2.34 0 2 C0 1.34 0 0.68 0 0 Z " fill="#E8F1EA" transform="translate(656,322)"/>
<path d="M0 0 C0.66 0 1.32 0 2 0 C1.67 2.31 1.34 4.62 1 7 C-0.32 6.34 -1.64 5.68 -3 5 C-1.625 2.5 -1.625 2.5 0 0 Z " fill="#0C0C16" transform="translate(413,643)"/>
<path d="M0 0 C0.99 0.33 1.98 0.66 3 1 C3 2.98 3 4.96 3 7 C2.01 7 1.02 7 0 7 C-0.66 5.68 -1.32 4.36 -2 3 C-1.34 2.01 -0.68 1.02 0 0 Z " fill="#EAE9E7" transform="translate(372,567)"/>
<path d="M0 0 C0.33 0 0.66 0 1 0 C1.625 3.375 1.625 3.375 2 7 C1.34 7.66 0.68 8.32 0 9 C-0.99 8.67 -1.98 8.34 -3 8 C-2.01 5.36 -1.02 2.72 0 0 Z " fill="#F1F0EB" transform="translate(677,430)"/>
<path d="M0 0 C1.98 0.66 3.96 1.32 6 2 C5.67 2.99 5.34 3.98 5 5 C2.69 4.34 0.38 3.68 -2 3 C-1.34 2.01 -0.68 1.02 0 0 Z " fill="#1C1A21" transform="translate(460,378)"/>
<path d="M0 0 C2.31 0.33 4.62 0.66 7 1 C6.67 1.99 6.34 2.98 6 4 C3.9375 4.6875 3.9375 4.6875 2 5 C1.34 3.35 0.68 1.7 0 0 Z " fill="#F0EFEA" transform="translate(379,371)"/>
<path d="M0 0 C1.98 0.66 3.96 1.32 6 2 C6 2.99 6 3.98 6 5 C5.34 5 4.68 5 4 5 C3.67 5.66 3.34 6.32 3 7 C2.01 4.69 1.02 2.38 0 0 Z " fill="#191821" transform="translate(710,354)"/>
<path d="M0 0 C2.2477975 2.05233685 3.0022242 3.00667261 4 6 C2.35 6.33 0.7 6.66 -1 7 C-0.67 4.69 -0.34 2.38 0 0 Z " fill="#F1F2E9" transform="translate(693,336)"/>
<path d="M0 0 C2.9719385 1.12451727 5.33440687 2.22293791 8 4 C7.67 4.66 7.34 5.32 7 6 C5.1875 5.8125 5.1875 5.8125 3 5 C1.25 2.4375 1.25 2.4375 0 0 Z " fill="#EFEDEF" transform="translate(334,672)"/>
<path d="M0 0 C2 3 2 3 2 5 C1.34 5 0.68 5 0 5 C0 5.66 0 6.32 0 7 C-0.66 7 -1.32 7 -2 7 C-2.33 7.99 -2.66 8.98 -3 10 C-2.88637738 8.5199159 -2.75877092 7.04089926 -2.625 5.5625 C-2.55539062 4.73878906 -2.48578125 3.91507813 -2.4140625 3.06640625 C-2.27742187 2.38449219 -2.14078125 1.70257812 -2 1 C-1.34 0.67 -0.68 0.34 0 0 Z " fill="#EFEEED" transform="translate(581,632)"/>
<path d="M0 0 C0.33 0.99 0.66 1.98 1 3 C0 4 0 4 -2.5625 4.0625 C-3.7690625 4.0315625 -3.7690625 4.0315625 -5 4 C-5.33 4.66 -5.66 5.32 -6 6 C-6 5.01 -6 4.02 -6 3 C-2.66666667 0 -2.66666667 0 0 0 Z M1 1 C3 2 3 2 3 2 Z " fill="#0C0B19" transform="translate(388,627)"/>
<path d="M0 0 C1.75 1.4375 1.75 1.4375 3 3 C1.68 3.99 0.36 4.98 -1 6 C-1.99 4.35 -2.98 2.7 -4 1 C-2.1875 0.3125 -2.1875 0.3125 0 0 Z " fill="#E9E9E3" transform="translate(462,609)"/>
<path d="M0 0 C-1.65 0.33 -3.3 0.66 -5 1 C-5 1.66 -5 2.32 -5 3 C-6.98 2.34 -8.96 1.68 -11 1 C-11 0.67 -11 0.34 -11 0 C-3.57142857 -1.28571429 -3.57142857 -1.28571429 0 0 Z " fill="#21202C" transform="translate(395,587)"/>
<path d="M0 0 C2.31 0.33 4.62 0.66 7 1 C7.33 2.65 7.66 4.3 8 6 C5.36 4.68 2.72 3.36 0 2 C0 1.34 0 0.68 0 0 Z " fill="#E3E3E3" transform="translate(563,531)"/>
<path d="M0 0 C0.66 0.33 1.32 0.66 2 1 C1.525625 1.763125 1.05125 2.52625 0.5625 3.3125 C-1.10106097 5.96410548 -1.10106097 5.96410548 -2 9 C-2.99 7.68 -3.98 6.36 -5 5 C-3.35 3.35 -1.7 1.7 0 0 Z " fill="#DCDCE0" transform="translate(485,494)"/>
<path d="M0 0 C0.33 0 0.66 0 1 0 C1 2.64 1 5.28 1 8 C0.01 8.33 -0.98 8.66 -2 9 C-2.6875 7.3125 -2.6875 7.3125 -3 5 C-1.625 2.25 -1.625 2.25 0 0 Z " fill="#DFDEDF" transform="translate(604,639)"/>
<path d="M0 0 C1.2065625 0.0309375 1.2065625 0.0309375 2.4375 0.0625 C1.7775 2.0425 1.1175 4.0225 0.4375 6.0625 C-0.5525 6.0625 -1.5425 6.0625 -2.5625 6.0625 C-2.94468767 4.40635343 -3.27645102 2.73792976 -3.5625 1.0625 C-2.5625 0.0625 -2.5625 0.0625 0 0 Z " fill="#1A1A26" transform="translate(651.5625,496.9375)"/>
<path d="M0 0 C0.66 1.32 1.32 2.64 2 4 C-0.475 5.485 -0.475 5.485 -3 7 C-3.1875 4.625 -3.1875 4.625 -3 2 C-2.01 1.34 -1.02 0.68 0 0 Z " fill="#ECEDE7" transform="translate(452,467)"/>
<path d="M0 0 C0.66 0.33 1.32 0.66 2 1 C1.34 2.98 0.68 4.96 0 7 C-1.65 5.68 -3.3 4.36 -5 3 C-3.35 2.67 -1.7 2.34 0 2 C0 1.34 0 0.68 0 0 Z " fill="#EAE9EA" transform="translate(662,465)"/>
<path d="M0 0 C4.875 1.75 4.875 1.75 6 4 C5.67 4.99 5.34 5.98 5 7 C4.34 7 3.68 7 3 7 C0 2.61538462 0 2.61538462 0 0 Z " fill="#1C1A21" transform="translate(588,328)"/>
<path d="M0 0 C0.66 0.99 1.32 1.98 2 3 C1.01 4.485 1.01 4.485 0 6 C-0.66 6 -1.32 6 -2 6 C-2.33 6.66 -2.66 7.32 -3 8 C-3.33 7.34 -3.66 6.68 -4 6 C-3.67 5.01 -3.34 4.02 -3 3 C-2.01 3 -1.02 3 0 3 C0 2.01 0 1.02 0 0 Z " fill="#EFF0F4" transform="translate(382,303)"/>
<path d="M0 0 C-0.66 1.98 -1.32 3.96 -2 6 C-2.66 6 -3.32 6 -4 6 C-4.66 4.68 -5.32 3.36 -6 2 C-2.25 0 -2.25 0 0 0 Z " fill="#E7E8E7" transform="translate(400,286)"/>
<path d="M0 0 C0 3 0 3 -1.3125 4.625 C-3 6 -3 6 -6 7 C-4.77065985 3.31197956 -3.06140622 2.27643027 0 0 Z " fill="#DFDFE0" transform="translate(590,778)"/>
<path d="M0 0 C0.33 0 0.66 0 1 0 C1 1.65 1 3.3 1 5 C2.98 5.495 2.98 5.495 5 6 C4.67 6.66 4.34 7.32 4 8 C3.34 7.67 2.68 7.34 2 7 C1.67 7.66 1.34 8.32 1 9 C0 8 0 8 -0.09765625 6.15234375 C-0.06510417 4.1015625 -0.03255208 2.05078125 0 0 Z " fill="#EDEDED" transform="translate(666,640)"/>
<path d="M0 0 C1.125 1.6875 1.125 1.6875 2 4 C1.125 6.75 1.125 6.75 0 9 C-0.33 9 -0.66 9 -1 9 C-1.125 2.25 -1.125 2.25 0 0 Z " fill="#0A0812" transform="translate(606,634)"/>
<path d="M0 0 C3 0 3 0 6 1 C4.68 2.32 3.36 3.64 2 5 C1.01 4.67 0.02 4.34 -1 4 C-0.67 2.68 -0.34 1.36 0 0 Z " fill="#0B0B13" transform="translate(547,585)"/>
<path d="M0 0 C0.66 0 1.32 0 2 0 C1.67 2.31 1.34 4.62 1 7 C0.01 6.34 -0.98 5.68 -2 5 C-1.125 1.125 -1.125 1.125 0 0 Z " fill="#E5E7EE" transform="translate(574,564)"/>
<path d="M0 0 C2.5 1.375 2.5 1.375 5 3 C5 3.66 5 4.32 5 5 C5.66 5.33 6.32 5.66 7 6 C2.25 5.25 2.25 5.25 0 3 C0 2.01 0 1.02 0 0 Z " fill="#21222A" transform="translate(527,291)"/>
<path d="M0 0 C2.475 0.495 2.475 0.495 5 1 C5.33 1.99 5.66 2.98 6 4 C4.35 4.33 2.7 4.66 1 5 C0.67 3.35 0.34 1.7 0 0 Z " fill="#EBECE7" transform="translate(656,705)"/>
<path d="M0 0 C0.66 0.33 1.32 0.66 2 1 C2 3.31 2 5.62 2 8 C1.67 7.34 1.34 6.68 1 6 C0.34 6 -0.32 6 -1 6 C-1.042721 4.33388095 -1.04063832 2.66617115 -1 1 C-0.67 0.67 -0.34 0.34 0 0 Z " fill="#292833" transform="translate(414,637)"/>
<path d="M0 0 C0.66 0.33 1.32 0.66 2 1 C1.34 1.66 0.68 2.32 0 3 C-0.70710678 4.64991582 -1.37943989 6.31562256 -2 8 C-2.66 7.01 -3.32 6.02 -4 5 C-3 2 -3 2 0 0 Z " fill="#1E1F2C" transform="translate(494,636)"/>
<path d="M0 0 C0.99 0.99 1.98 1.98 3 3 C1.35 4.32 -0.3 5.64 -2 7 C-1.125 2.25 -1.125 2.25 0 0 Z " fill="#EDECE7" transform="translate(454,617)"/>
<path d="M0 0 C0.99 0.99 1.98 1.98 3 3 C1.02 3.99 1.02 3.99 -1 5 C-1.99 4.01 -2.98 3.02 -4 2 C-2.68 1.34 -1.36 0.68 0 0 Z " fill="#232029" transform="translate(408,555)"/>
<path d="M0 0 C2.475 0.495 2.475 0.495 5 1 C5.66 2.98 6.32 4.96 7 7 C5.83040013 6.02433888 4.66438823 5.044375 3.5 4.0625 C2.8503125 3.51722656 2.200625 2.97195313 1.53125 2.41015625 C1.0259375 1.94480469 0.520625 1.47945312 0 1 C0 0.67 0 0.34 0 0 Z " fill="#EEECF0" transform="translate(481,537)"/>
<path d="M0 0 C1.32 1.32 2.64 2.64 4 4 C3.01 4.495 3.01 4.495 2 5 C1.67 5.66 1.34 6.32 1 7 C-2 3.25 -2 3.25 -2 1 C-1.34 0.67 -0.68 0.34 0 0 Z " fill="#ECEEED" transform="translate(507,453)"/>
<path d="M0 0 C3.465 1.98 3.465 1.98 7 4 C6.67 4.66 6.34 5.32 6 6 C3.11562221 4.70700306 1.12780579 3.34058637 -1 1 C-0.67 0.67 -0.34 0.34 0 0 Z " fill="#E3E3E3" transform="translate(475,384)"/>
<path d="M0 0 C1.875 0.3125 1.875 0.3125 4 1 C4.66 1.99 5.32 2.98 6 4 C4.125 4.625 4.125 4.625 2 5 C1.34 4.34 0.68 3.68 0 3 C0 2.01 0 1.02 0 0 Z " fill="#EEF0EA" transform="translate(546,315)"/>
</svg>
